<svg version="1.1" id="Layer_1" xmlns="http://www.w3.org/2000/svg" xmlns:xlink="http://www.w3.org/1999/xlink" x="0px" y="0px"
	 width="100%" viewBox="0 0 328 361" enable-background="new 0 0 328 361" xml:space="preserve">
<path fill="#020201" opacity="1.000000" stroke="none" 
	d="
M1.000000,137.000000 
	C1.000000,91.349724 1.000000,46.199440 1.000000,1.024581 
	C110.277275,1.024581 219.554565,1.024581 328.915924,1.024581 
	C328.915924,121.233566 328.915924,241.467224 328.915924,361.850433 
	C219.666824,361.850433 110.333435,361.850433 1.000000,361.850433 
	C1.000000,287.112213 1.000000,212.306107 1.000000,137.000000 
M56.940151,192.591171 
	C56.940151,192.591171 56.659416,192.404358 56.031857,192.115967 
	C54.593990,191.361725 53.156124,190.607498 51.544472,189.762100 
	C50.494114,192.564514 49.381554,195.532883 48.101803,198.947327 
	C50.915321,198.947327 52.952728,198.947327 55.461765,198.911041 
	C55.461765,198.911041 55.913414,199.051682 56.289291,199.623520 
	C58.106995,200.967545 59.924698,202.311584 62.168571,203.970734 
	C62.168571,202.105408 62.168571,199.997986 61.850548,197.312073 
	C61.150928,195.932388 60.451309,194.552719 59.626465,192.926086 
	C58.936089,192.926086 57.957748,192.926086 56.940151,192.591171 
M40.124908,219.904358 
	C40.742115,219.862213 41.359325,219.820053 42.696785,219.601807 
	C46.857761,216.005280 44.450840,211.296707 45.010193,206.288284 
	C44.607334,205.072052 44.204475,203.855804 43.416862,203.106415 
	C42.914444,203.705612 42.412025,204.304825 41.220871,204.976791 
	C40.172501,204.708176 39.124126,204.439560 37.423283,204.088486 
	C36.986713,204.103638 36.550144,204.118790 35.425545,203.595505 
	C35.425545,175.210724 35.425545,146.825943 35.425545,118.441170 
	C33.805889,119.041008 33.069279,119.829659 33.075771,120.612144 
	C33.237499,140.095337 33.481724,159.577820 33.702110,179.060532 
	C33.799801,187.696701 33.877407,196.333115 33.941292,205.872177 
	C33.956657,207.495590 34.111702,209.132416 33.957615,210.739578 
	C33.658531,213.859146 35.234619,214.356812 37.993481,214.499435 
	C38.424618,216.146683 38.855751,217.793930 39.495407,219.620056 
	C39.495407,219.620056 39.696323,219.432678 40.124908,219.904358 
M246.228104,59.615372 
	C246.228104,67.531479 246.228104,75.447578 246.228104,83.363686 
	C246.356689,83.366325 246.485291,83.368973 246.613876,83.371613 
	C247.085098,78.289612 247.556305,73.207603 248.767166,67.642952 
	C248.767166,59.508862 248.767166,51.374775 248.767166,43.240685 
	C248.242767,43.206562 247.718369,43.172440 247.193970,43.138313 
	C245.228943,48.232925 246.043488,53.606075 246.228104,59.615372 
M85.918877,56.944702 
	C94.960281,56.944603 104.001678,56.944504 113.947838,57.185833 
	C120.748116,57.200607 127.548477,57.245483 134.348648,57.224758 
	C158.889252,57.149963 183.429764,57.053078 208.910645,56.953445 
	C220.475174,56.953445 232.039703,56.953445 243.604233,56.953445 
	C243.604385,56.649506 243.604523,56.345562 243.604675,56.041622 
	C231.726852,56.041622 219.849045,56.041622 207.057739,55.832714 
	C188.814423,55.826298 170.571030,55.785744 152.327820,55.824951 
	C139.234314,55.853092 126.141068,55.987843 112.107162,56.113033 
	C103.107941,56.066402 94.108727,56.019775 85.054375,55.145874 
	C85.054375,49.303890 85.054375,43.461903 85.054375,37.619919 
	C84.275703,37.624599 83.497032,37.629284 82.718361,37.633968 
	C82.718361,44.001877 82.708717,50.369946 82.812294,56.736168 
	C82.813812,56.829510 84.225723,56.899902 85.918877,56.944702 
M168.094070,313.152130 
	C168.089584,312.842499 168.030457,312.543640 168.496307,311.615662 
	C168.726273,308.849243 168.956223,306.082825 169.162170,303.605225 
	C163.114807,303.605225 157.541702,303.605225 152.170731,303.605225 
	C152.496948,306.394989 152.835571,309.290833 153.036942,312.432587 
	C153.036942,312.432587 153.045761,312.714081 152.202347,312.938629 
	C150.768097,313.072357 149.333832,313.206116 146.987244,313.184174 
	C125.806801,313.184174 104.626358,313.184174 82.636917,313.184174 
	C83.438835,315.703491 83.774834,316.759064 84.385231,318.676697 
	C84.887306,316.751221 85.119331,315.861359 85.293884,315.191956 
	C106.232170,315.191956 126.940575,315.192505 147.649002,315.180298 
	C147.786057,315.180206 147.923035,315.003876 148.984283,314.919830 
	C162.311234,314.888794 175.638184,314.857758 189.820251,315.255066 
	C204.909744,315.172638 219.999222,315.090240 235.568558,315.000122 
	C235.969376,314.853210 236.370193,314.706329 236.771027,314.559448 
	C236.253235,314.372040 235.735443,314.184631 234.681839,313.285431 
	C221.468369,313.078064 208.255310,312.814728 195.041031,312.722260 
	C193.008057,312.708008 190.969589,313.479767 188.005966,313.940094 
	C181.357880,313.830292 174.709808,313.720520 168.094070,313.152130 
M239.799744,175.172073 
	C239.604874,175.108398 239.409988,175.044708 239.026581,174.376770 
	C239.034622,172.995239 238.610168,171.418716 239.129166,170.267563 
	C240.920486,166.294434 243.040848,162.469650 245.675003,158.221527 
	C255.020020,143.747543 258.116119,128.271194 253.057144,110.823624 
	C251.682892,107.610207 250.308624,104.396790 248.773956,100.490700 
	C247.184174,98.013466 245.594376,95.536232 243.752136,92.440399 
	C241.827682,90.622330 239.903229,88.804268 237.667587,86.395248 
	C235.118271,84.658173 232.568939,82.921097 229.368301,80.982376 
	C228.270996,80.233444 227.173691,79.484520 225.614334,78.200645 
	C224.469635,78.102242 223.324921,78.003845 222.014557,77.216240 
	C220.344757,76.527122 218.674957,75.837997 216.430313,74.650887 
	C211.964264,73.804680 207.498215,72.958473 202.534302,71.962013 
	C202.364944,71.999046 202.195602,72.036072 201.118042,71.828873 
	C196.417526,71.865654 191.716995,71.902428 186.117096,71.663292 
	C181.426102,71.772141 176.735123,71.880989 171.110428,71.848572 
	C166.078339,71.908478 161.046265,71.968384 155.092636,71.833328 
	C147.732849,71.905907 140.373047,71.978485 132.090317,71.865456 
	C122.396973,71.925461 112.703636,71.985474 102.093460,71.847694 
	C98.452881,71.841141 94.798134,71.647591 91.178825,71.921761 
	C89.767509,72.028664 87.635941,72.864655 87.206970,73.924767 
	C85.380615,78.438156 84.069000,83.159828 82.128036,88.526207 
	C82.190956,89.357216 82.253883,90.188217 82.162689,91.929298 
	C82.166130,95.954071 82.169571,99.978851 82.050201,104.825386 
	C82.129715,106.203506 82.209229,107.581635 82.132950,109.818985 
	C82.197433,111.559402 82.261909,113.299820 82.155815,115.849480 
	C82.217903,117.215965 82.279999,118.582458 82.249016,120.725273 
	C82.302208,121.501022 82.355408,122.276779 82.186676,123.959259 
	C82.186676,178.972168 82.186676,233.985062 82.186676,289.123718 
	C84.381943,289.231445 86.203926,289.395233 88.026230,289.398987 
	C113.978569,289.452454 139.930954,289.500854 165.883316,289.512482 
	C175.185730,289.516632 184.488159,289.419403 194.714981,289.606232 
	C196.900070,289.482880 199.085159,289.359558 201.973206,289.457367 
	C203.662109,289.323517 205.351013,289.189667 207.839890,289.137177 
	C213.579620,287.139709 219.319336,285.142273 225.812775,283.097290 
	C227.772171,282.050873 229.890839,281.222046 231.665436,279.923126 
	C244.345764,270.641541 250.996750,257.881531 253.583939,242.006912 
	C260.219391,231.182831 260.319336,219.395844 258.531555,207.389313 
	C258.209717,205.227905 257.139587,203.177917 256.168365,200.564316 
	C254.739731,197.052582 253.311096,193.540848 251.789536,189.340469 
	C249.652435,186.419937 247.515335,183.499405 245.336716,180.735001 
	C245.336716,180.735001 245.496994,180.755508 245.269806,180.213455 
	C244.835846,179.852921 244.401871,179.492401 243.772202,178.623199 
	C243.479691,178.420837 243.187180,178.218475 242.657074,177.417343 
	C241.988724,176.892899 241.320374,176.368454 240.641083,175.589462 
	C240.641083,175.589462 240.432159,175.444885 240.432159,175.444885 
	C240.432159,175.444885 240.235016,175.606628 239.799744,175.172073 
M69.225700,173.500092 
	C69.225700,156.335159 69.225700,139.170227 69.225700,122.005295 
	C68.469238,122.009720 67.712784,122.014153 66.956322,122.018578 
	C66.443573,176.984451 67.270866,231.950180 67.074242,286.916016 
	C67.791481,286.917725 68.508713,286.919403 69.225952,286.921112 
	C69.225952,249.447433 69.225952,211.973770 69.225700,173.500092 
M86.674828,328.101227 
	C117.750076,327.422668 148.858078,330.012207 179.989243,327.568451 
	C179.374786,326.527679 178.701233,326.085358 178.009232,326.054352 
	C170.890869,325.735321 163.770416,325.280975 156.648834,325.249176 
	C134.026794,325.148071 111.404015,325.210846 88.781525,325.212860 
	C87.617897,325.212952 86.408890,325.052612 85.308838,325.323578 
	C84.713570,325.470215 84.304260,326.371735 83.811050,326.932739 
	C84.518974,327.324951 85.226891,327.717163 86.674828,328.101227 
M209.523300,43.057041 
	C217.966110,43.057041 226.408905,43.057041 234.851715,43.057041 
	C234.840027,42.436878 234.828339,41.816715 234.816650,41.196552 
	C212.619446,40.439133 190.395020,41.480530 168.190033,40.939304 
	C145.724503,40.391727 123.235222,40.818558 100.756340,40.818558 
	C101.354996,42.032265 102.059280,42.334263 102.765503,42.338890 
	C108.764885,42.378204 114.765213,42.309635 120.764160,42.374569 
	C141.374619,42.597660 161.984375,42.902878 182.595291,43.035995 
	C184.332886,43.047218 186.077240,42.009666 187.309601,41.620174 
	C189.297913,42.267567 191.005402,43.267250 192.732895,43.303120 
	C197.994629,43.412357 203.264099,43.149868 209.523300,43.057041 
M161.591049,21.156332 
	C161.438065,22.124743 161.434601,23.147486 161.105896,24.052046 
	C159.765060,27.741896 161.814163,28.679924 164.587997,27.645128 
	C166.061508,27.095427 167.889603,24.771801 167.814911,23.339846 
	C167.636215,19.914869 164.842758,20.030443 161.591049,21.156332 
M155.247025,20.778162 
	C150.238831,22.487692 153.890778,26.203531 153.035477,28.799978 
	C160.164169,31.107071 156.269485,24.153297 158.741943,22.619225 
	C157.864624,21.989960 156.987305,21.360693 155.247025,20.778162 
M33.725178,260.481323 
	C33.725178,264.487091 33.725178,268.492859 33.725178,272.498627 
	C34.101093,272.487488 34.477013,272.476379 34.852928,272.465240 
	C34.852928,260.127075 34.852928,247.788895 34.852928,235.450729 
	C34.477970,235.443909 34.103008,235.437088 33.728050,235.430267 
	C33.728050,243.449173 33.728050,251.468063 33.725178,260.481323 
M248.406372,327.051422 
	C250.103241,319.256287 249.338058,313.786255 247.194717,313.565643 
	C247.194717,317.199188 247.152740,320.921570 247.222992,324.641815 
	C247.241547,325.623566 247.606537,326.598816 248.406372,327.051422 
M215.895172,325.998535 
	C208.014297,325.998535 200.133408,325.998535 192.252533,325.998535 
	C192.258331,326.232208 192.264130,326.465912 192.269928,326.699585 
	C200.892273,326.699585 209.514603,326.699585 218.136932,326.699585 
	C218.139847,326.568390 218.142761,326.437195 218.145691,326.306000 
	C217.676590,326.199585 217.207489,326.093170 215.895172,325.998535 
z"/>
<path fill="#DC837E" opacity="1.000000" stroke="none" 
	d="
M193.790588,289.368469 
	C184.488159,289.419403 175.185730,289.516632 165.883316,289.512482 
	C139.930954,289.500854 113.978569,289.452454 88.026230,289.398987 
	C86.203926,289.395233 84.381943,289.231445 82.186676,289.123718 
	C82.186676,233.985062 82.186676,178.972168 82.580200,123.661606 
	C84.237923,123.575539 85.502129,123.787125 86.830261,124.464005 
	C86.915611,127.921104 86.973572,130.913177 86.952942,133.904694 
	C86.656303,176.935394 86.349091,219.966049 86.014473,263.399292 
	C86.010849,264.879364 86.037163,265.956787 86.058693,267.396729 
	C86.071213,268.482208 86.088516,269.205200 86.068176,270.399719 
	C86.008255,275.506470 85.837349,280.148773 86.057510,284.772491 
	C86.120613,286.097778 87.314522,287.369263 88.456543,288.712769 
	C121.566963,288.804047 154.210785,288.838470 186.854538,288.911957 
	C189.166885,288.917145 191.478592,289.209595 193.790588,289.368469 
z"/>
<path fill="#E49082" opacity="1.000000" stroke="none" 
	d="
M252.964294,242.480835 
	C250.996750,257.881531 244.345764,270.641541 231.665436,279.923126 
	C229.890839,281.222046 227.772171,282.050873 225.427475,282.734955 
	C225.040787,281.600159 225.039398,280.827698 225.260742,280.033569 
	C225.483475,280.011932 225.930466,279.976074 226.184860,279.982544 
	C226.921570,279.610413 227.403870,279.231812 228.136414,278.635651 
	C233.239014,272.625946 238.091339,266.833740 243.094513,260.708008 
	C254.955124,235.215302 244.105133,204.788300 219.093109,192.698547 
	C215.743271,191.079376 212.339996,189.570724 209.401138,188.006256 
	C212.926239,187.666092 216.011673,187.330582 219.303741,187.252716 
	C221.986023,188.684616 224.461685,189.858871 227.089050,191.279938 
	C227.817596,192.029678 228.394440,192.532623 229.141693,193.311508 
	C230.852676,194.744675 232.393250,195.901901 234.108307,197.330063 
	C235.795532,199.131500 237.308289,200.662003 238.931915,202.485870 
	C239.992554,203.884705 240.942337,204.990173 242.039703,206.403717 
	C244.085068,209.819626 245.982849,212.927475 247.938995,216.416809 
	C249.652985,225.359146 251.308640,233.919998 252.964294,242.480835 
z"/>
<path fill="#E78D83" opacity="1.000000" stroke="none" 
	d="
M217.005157,75.148880 
	C218.674957,75.837997 220.344757,76.527122 221.793869,77.749916 
	C219.382126,83.522400 217.191071,88.761200 215.100876,94.322220 
	C218.471024,96.784172 221.740311,98.923889 225.092560,101.324814 
	C225.568100,101.790932 226.185287,102.271126 226.320557,102.160744 
	C230.307617,98.907364 232.470566,86.887230 230.002533,81.796532 
	C230.001343,81.592224 230.019623,81.184013 230.019623,81.184013 
	C232.568939,82.921097 235.118271,84.658173 237.677917,87.038055 
	C236.368149,92.295288 235.858368,97.384552 233.508057,101.395241 
	C230.981445,105.706757 231.494766,108.614792 234.521561,111.876709 
	C235.419907,112.844841 236.154266,113.965126 237.106537,115.302406 
	C237.838776,116.726501 238.428284,117.863876 238.938446,119.224014 
	C239.230118,119.959450 239.601135,120.472122 240.111588,121.255386 
	C240.809631,122.361679 241.368240,123.197380 241.996979,124.388954 
	C242.387985,126.154152 242.708847,127.563484 242.861313,129.237793 
	C241.521164,130.665573 240.349442,131.828354 239.076050,132.621780 
	C233.472198,113.060959 220.695038,101.082863 202.000793,94.575775 
	C202.007034,93.142700 202.017578,92.101318 202.364197,91.202942 
	C205.127029,91.907799 207.553787,92.469666 210.095444,93.159348 
	C210.444550,93.288795 210.678787,93.290428 210.913010,93.292068 
	C210.620483,93.183327 210.327957,93.074593 210.107285,92.574448 
	C210.799286,85.841705 212.478638,79.924828 217.005157,75.148880 
z"/>
<path fill="#E5988A" opacity="1.000000" stroke="none" 
	d="
M225.038025,280.055237 
	C225.039398,280.827698 225.040787,281.600159 225.050629,282.758728 
	C219.319336,285.142273 213.579620,287.139709 207.072662,289.045471 
	C204.627045,289.047913 202.948654,289.142090 201.270248,289.236237 
	C199.085159,289.359558 196.900070,289.482880 194.252777,289.487366 
	C191.478592,289.209595 189.166885,288.917145 186.854538,288.911957 
	C154.210785,288.838470 121.566963,288.804047 88.613678,288.515930 
	C88.554604,287.830811 88.804985,287.389954 89.468376,286.955200 
	C93.924599,286.632446 97.967812,286.303589 102.270348,285.981567 
	C102.701836,285.972076 102.874001,285.955719 103.493988,285.952698 
	C106.915779,285.975067 109.889755,285.984039 113.339340,286.037659 
	C126.030441,286.082733 138.247040,286.161865 150.460098,285.989532 
	C152.091156,285.966553 153.704269,284.670471 155.606171,283.836304 
	C156.496338,282.168854 157.106033,280.629028 157.858856,279.289001 
	C158.205063,279.750763 158.443039,279.975769 158.825729,280.525482 
	C159.869293,282.919434 159.066910,286.322266 163.446014,286.048126 
	C179.231110,285.982697 194.546387,285.874878 210.215332,285.715210 
	C212.374985,285.071808 214.181015,284.480316 216.350189,283.912201 
	C218.810760,282.945099 220.908173,281.954620 223.262161,280.854065 
	C224.025162,280.514404 224.531586,280.284821 225.038025,280.055237 
z"/>
<path fill="#CA54CC" opacity="1.000000" stroke="none" 
	d="
M103.010292,72.045479 
	C112.703636,71.985474 122.396973,71.925461 132.449432,72.273056 
	C126.924721,78.917793 126.929871,78.914665 131.585678,86.590271 
	C131.830383,86.993690 131.864487,87.524849 131.529694,88.024185 
	C125.360504,88.147041 119.658279,88.242249 113.629295,88.286377 
	C112.867729,88.162262 112.432930,88.089241 111.730782,87.798790 
	C103.673569,85.108109 102.965111,78.781822 103.010292,72.045479 
z"/>
<path fill="#E08383" opacity="1.000000" stroke="none" 
	d="
M239.177704,132.991150 
	C240.349442,131.828354 241.521164,130.665573 243.092926,129.255066 
	C243.492935,129.007370 243.957458,129.029770 243.975204,129.443146 
	C244.340591,139.433792 244.688248,149.011093 245.035919,158.588379 
	C243.040848,162.469650 240.920486,166.294434 239.129166,170.267563 
	C238.610168,171.418716 239.034622,172.995239 238.847107,174.666046 
	C238.116318,174.944595 237.565018,174.933884 236.769745,174.832321 
	C233.015976,177.826935 229.506165,180.912384 225.653381,184.059265 
	C223.239319,185.078842 221.168213,186.036957 219.097107,186.995087 
	C216.011673,187.330582 212.926239,187.666092 209.104889,187.829651 
	C209.426727,186.768906 210.398712,185.743942 211.556854,185.014526 
	C216.997375,181.588013 222.489059,178.242691 228.244797,174.695374 
	C230.412811,172.121689 232.298508,169.721039 234.491608,167.133087 
	C241.488785,156.302032 241.048843,144.738861 239.177704,132.991150 
z"/>
<path fill="#D257C7" opacity="1.000000" stroke="none" 
	d="
M131.996643,87.996544 
	C131.864487,87.524849 131.830383,86.993690 131.585678,86.590271 
	C126.929871,78.914665 126.924721,78.917793 132.910889,72.365860 
	C140.373047,71.978485 147.732849,71.905907 155.449249,72.251938 
	C151.826981,75.868652 149.750885,79.482979 152.779953,84.548851 
	C153.301636,85.421303 152.943314,86.819962 152.526047,88.000450 
	C147.044220,88.070053 142.027832,88.114746 136.755310,88.140831 
	C136.328598,88.137024 136.158035,88.151825 135.588165,88.156494 
	C134.124786,88.096420 133.060715,88.046486 131.996643,87.996544 
z"/>
<path fill="#BF51CA" opacity="1.000000" stroke="none" 
	d="
M102.551880,71.946587 
	C102.965111,78.781822 103.673569,85.108109 111.263245,87.824829 
	C107.591667,88.070526 104.119949,88.104851 100.648987,88.067856 
	C94.622231,88.003624 88.595955,87.895294 82.569473,87.805466 
	C84.069000,83.159828 85.380615,78.438156 87.206970,73.924767 
	C87.635941,72.864655 89.767509,72.028664 91.178825,71.921761 
	C94.798134,71.647591 98.452881,71.841141 102.551880,71.946587 
z"/>
<path fill="#EE6833" opacity="1.000000" stroke="none" 
	d="
M69.225830,174.000092 
	C69.225952,211.973770 69.225952,249.447433 69.225952,286.921112 
	C68.508713,286.919403 67.791481,286.917725 67.074242,286.916016 
	C67.270866,231.950180 66.443573,176.984451 66.956322,122.018578 
	C67.712784,122.014153 68.469238,122.009720 69.225700,122.005295 
	C69.225700,139.170227 69.225700,156.335159 69.225830,174.000092 
z"/>
<path fill="#C3582A" opacity="1.000000" stroke="none" 
	d="
M86.304817,328.105286 
	C85.226891,327.717163 84.518974,327.324951 83.811058,326.932739 
	C84.304260,326.371735 84.713570,325.470215 85.308838,325.323578 
	C86.408890,325.052612 87.617897,325.212952 88.781525,325.212860 
	C111.404015,325.210846 134.026794,325.148071 156.648834,325.249176 
	C163.770416,325.280975 170.890869,325.735321 178.009232,326.054352 
	C178.701233,326.085358 179.374786,326.527679 179.989243,327.568451 
	C148.858078,330.012207 117.750076,327.422668 86.304817,328.105286 
z"/>
<path fill="#CB55BA" opacity="1.000000" stroke="none" 
	d="
M245.355453,158.404953 
	C244.688248,149.011093 244.340591,139.433792 244.268265,129.268524 
	C249.488480,123.994644 253.592224,118.886368 253.168594,111.504631 
	C258.116119,128.271194 255.020020,143.747543 245.355453,158.404953 
z"/>
<path fill="#EE6833" opacity="1.000000" stroke="none" 
	d="
M209.026917,43.044563 
	C203.264099,43.149868 197.994629,43.412357 192.732895,43.303120 
	C191.005402,43.267250 189.297913,42.267567 187.309601,41.620174 
	C186.077240,42.009666 184.332886,43.047218 182.595291,43.035995 
	C161.984375,42.902878 141.374619,42.597660 120.764160,42.374569 
	C114.765213,42.309635 108.764885,42.378204 102.765503,42.338890 
	C102.059280,42.334263 101.354996,42.032265 100.756340,40.818558 
	C123.235222,40.818558 145.724503,40.391727 168.190033,40.939304 
	C190.395020,41.480530 212.619446,40.439133 234.816650,41.196552 
	C234.828339,41.816715 234.840027,42.436878 234.851715,43.057041 
	C226.408905,43.057041 217.966110,43.057041 209.026917,43.044563 
z"/>
<path fill="#D75FAA" opacity="1.000000" stroke="none" 
	d="
M172.044128,71.989838 
	C176.735123,71.880989 181.426102,71.772141 186.491898,72.139313 
	C180.763077,76.863091 179.295837,82.236244 182.471832,88.870682 
	C177.679596,88.620140 173.342270,88.345795 168.939178,87.701141 
	C165.610703,77.292160 165.610703,77.292160 172.044128,71.989838 
z"/>
<path fill="#B950CD" opacity="1.000000" stroke="none" 
	d="
M253.274109,242.243866 
	C251.308640,233.919998 249.652985,225.359146 248.275162,216.318878 
	C254.531464,212.706650 253.523880,205.853485 256.414917,201.076492 
	C257.139587,203.177917 258.209717,205.227905 258.531555,207.389313 
	C260.319336,219.395844 260.219391,231.182831 253.274109,242.243866 
z"/>
<path fill="#D65BBB" opacity="1.000000" stroke="none" 
	d="
M171.577271,71.919205 
	C165.610703,77.292160 165.610703,77.292160 168.471436,87.704117 
	C163.043488,88.043457 158.017487,88.009499 152.991501,87.975548 
	C152.943314,86.819962 153.301636,85.421303 152.779953,84.548851 
	C149.750885,79.482979 151.826981,75.868652 155.910019,72.349426 
	C161.046265,71.968384 166.078339,71.908478 171.577271,71.919205 
z"/>
<path fill="#DF6D9C" opacity="1.000000" stroke="none" 
	d="
M182.926758,88.846893 
	C179.295837,82.236244 180.763077,76.863091 186.941589,72.277275 
	C191.716995,71.902428 196.417526,71.865654 201.286499,72.153214 
	C200.672363,72.736305 199.759003,72.818001 199.128906,73.283272 
	C195.680237,75.829819 191.673508,78.311035 192.484573,83.378082 
	C193.211517,87.919449 196.632141,89.421890 200.998169,89.282211 
	C201.014481,89.722435 201.021530,89.898506 200.581757,90.054665 
	C194.398865,89.638802 188.662811,89.242844 182.926758,88.846893 
z"/>
<path fill="#E3798A" opacity="1.000000" stroke="none" 
	d="
M236.963791,115.015686 
	C236.154266,113.965126 235.419907,112.844841 234.521561,111.876709 
	C231.494766,108.614792 230.981445,105.706757 233.508057,101.395241 
	C235.858368,97.384552 236.368149,92.295288 237.833496,87.333542 
	C239.903229,88.804268 241.827682,90.622330 243.876770,93.144226 
	C244.798874,101.948990 241.706451,108.756668 236.963791,115.015686 
z"/>
<path fill="#CA54CC" opacity="1.000000" stroke="none" 
	d="
M256.291626,200.820404 
	C253.523880,205.853485 254.531464,212.706650 248.216827,215.937378 
	C245.982849,212.927475 244.085068,209.819626 242.304474,206.172302 
	C243.465729,204.423279 244.735977,203.342377 245.510956,201.979782 
	C247.741928,198.057175 249.772903,194.020798 251.882462,190.029114 
	C253.311096,193.540848 254.739731,197.052582 256.291626,200.820404 
z"/>
<path fill="#E67F89" opacity="1.000000" stroke="none" 
	d="
M201.028595,90.074577 
	C201.021530,89.898506 201.014481,89.722435 201.001877,88.862686 
	C202.147690,84.485390 203.003235,80.661682 204.550934,77.142365 
	C205.643097,74.658875 205.515884,73.202209 203.032166,72.112274 
	C207.498215,72.958473 211.964264,73.804680 216.717743,74.899887 
	C212.478638,79.924828 210.799286,85.841705 210.092438,92.589973 
	C210.005737,92.996910 209.980560,93.031540 209.980560,93.031540 
	C207.553787,92.469666 205.127029,91.907799 202.174866,91.060776 
	C201.407516,90.572929 201.200562,90.339249 201.028595,90.074577 
z"/>
<path fill="#C3582A" opacity="1.000000" stroke="none" 
	d="
M148.060059,314.909821 
	C147.923035,315.003876 147.786057,315.180206 147.649002,315.180298 
	C126.940575,315.192505 106.232170,315.191956 85.293884,315.191956 
	C85.119331,315.861359 84.887306,316.751221 84.385231,318.676697 
	C83.774834,316.759064 83.438835,315.703491 82.636917,313.184174 
	C104.626358,313.184174 125.806801,313.184174 147.461594,313.524780 
	C147.977310,314.213531 148.018677,314.561676 148.060059,314.909821 
z"/>
<path fill="#E5988A" opacity="1.000000" stroke="none" 
	d="
M82.348755,88.165833 
	C88.595955,87.895294 94.622231,88.003624 100.648987,88.067856 
	C104.119949,88.104851 107.591667,88.070526 111.530586,88.042267 
	C112.432930,88.089241 112.867729,88.162262 113.704697,88.647446 
	C115.973824,89.703079 117.813850,90.798370 119.712433,90.911568 
	C127.792152,91.393288 135.889206,91.584206 143.553284,91.960098 
	C133.177582,92.038895 123.228539,92.038895 112.895882,92.038895 
	C112.895882,95.724800 112.895882,98.355919 112.472778,100.937149 
	C111.767387,100.855911 111.485100,100.824570 111.140038,100.415550 
	C111.180244,92.327606 111.180298,92.323784 103.593285,92.221504 
	C100.936249,92.185684 98.238953,91.900932 95.640755,92.281235 
	C94.556801,92.439888 93.683350,94.036713 92.546852,94.728912 
	C91.833191,93.679420 91.286873,92.880630 90.422760,92.113091 
	C89.466179,92.131439 88.827400,92.118530 87.922798,92.098694 
	C87.480972,92.070534 87.304977,92.049301 86.781342,91.964180 
	C85.061394,91.606598 83.689102,91.312912 82.316803,91.019226 
	C82.253883,90.188217 82.190956,89.357216 82.348755,88.165833 
z"/>
<path fill="#DB679B" opacity="1.000000" stroke="none" 
	d="
M237.106537,115.302399 
	C241.706451,108.756668 244.798874,101.948990 244.002991,93.453522 
	C245.594376,95.536232 247.184174,98.013466 248.869263,101.257858 
	C249.591553,110.311714 245.040100,116.942444 241.926849,124.033081 
	C241.368240,123.197380 240.809631,122.361679 240.065445,120.976852 
	C239.592514,119.952240 239.305161,119.476746 239.017807,119.001251 
	C238.428284,117.863876 237.838776,116.726501 237.106537,115.302399 
z"/>
<path fill="#F3AC8A" opacity="1.000000" stroke="none" 
	d="
M229.693970,81.083191 
	C230.019623,81.184013 230.001343,81.592224 229.781128,82.100449 
	C228.802246,85.671204 228.041031,88.733101 227.285568,91.796417 
	C226.523926,94.884750 225.768005,97.974487 225.009583,101.063614 
	C221.740311,98.923889 218.471024,96.784172 215.426422,94.209122 
	C216.543259,92.270386 217.416763,90.755501 218.332291,89.266457 
	C219.488785,87.385513 220.579590,85.452156 221.883987,83.677574 
	C223.160294,81.941200 224.669418,80.375954 226.076370,78.735596 
	C227.173691,79.484520 228.270996,80.233444 229.693970,81.083191 
z"/>
<path fill="#D75FAA" opacity="1.000000" stroke="none" 
	d="
M238.821045,202.192505 
	C237.308289,200.662003 235.795532,199.131500 234.273270,196.978119 
	C234.529114,195.249847 234.626923,194.068466 235.088058,193.051880 
	C237.423050,187.904129 236.817902,181.216583 242.894684,178.016113 
	C243.187180,178.218475 243.479691,178.420837 243.973877,179.150543 
	C244.616043,180.037109 245.056519,180.396317 245.496994,180.755508 
	C245.496994,180.755508 245.336716,180.735001 245.319031,181.023254 
	C245.253799,182.604752 245.138458,183.899658 245.170151,185.190948 
	C245.330292,191.715118 241.170929,196.613892 238.821045,202.192505 
z"/>
<path fill="#E3798A" opacity="1.000000" stroke="none" 
	d="
M82.239746,91.474258 
	C83.689102,91.312912 85.061394,91.606598 86.754929,92.429382 
	C86.972885,103.305222 86.869606,113.651970 86.766335,123.998718 
	C85.502129,123.787125 84.237923,123.575539 82.691162,123.208237 
	C82.355408,122.276779 82.302208,121.501022 82.449524,120.053726 
	C82.542160,117.934868 82.434273,116.487556 82.326385,115.040237 
	C82.261909,113.299820 82.197433,111.559402 82.374138,109.103043 
	C82.467880,106.925934 82.320442,105.464783 82.173004,104.003624 
	C82.169571,99.978851 82.166130,95.954071 82.239746,91.474258 
z"/>
<path fill="#E3798A" opacity="1.000000" stroke="none" 
	d="
M202.783234,72.037140 
	C205.515884,73.202209 205.643097,74.658875 204.550934,77.142365 
	C203.003235,80.661682 202.147690,84.485390 200.992615,88.598526 
	C196.632141,89.421890 193.211517,87.919449 192.484573,83.378082 
	C191.673508,78.311035 195.680237,75.829819 199.128906,73.283272 
	C199.759003,72.818001 200.672363,72.736305 201.740601,72.275314 
	C202.195602,72.036072 202.364944,71.999046 202.783234,72.037140 
z"/>
<path fill="#D75FAA" opacity="1.000000" stroke="none" 
	d="
M241.996979,124.388954 
	C245.040100,116.942444 249.591553,110.311714 248.949463,101.604202 
	C250.308624,104.396790 251.682892,107.610207 253.112869,111.164124 
	C253.592224,118.886368 249.488480,123.994644 244.250519,128.855148 
	C243.957458,129.029770 243.492935,129.007370 243.261322,128.990082 
	C242.708847,127.563484 242.387985,126.154152 241.996979,124.388954 
z"/>
<path fill="#D65BBB" opacity="1.000000" stroke="none" 
	d="
M238.931915,202.485870 
	C241.170929,196.613892 245.330292,191.715118 245.170151,185.190948 
	C245.138458,183.899658 245.253799,182.604752 245.339783,180.945190 
	C247.515335,183.499405 249.652435,186.419937 251.835999,189.684784 
	C249.772903,194.020798 247.741928,198.057175 245.510956,201.979782 
	C244.735977,203.342377 243.465729,204.423279 242.156906,205.864227 
	C240.942337,204.990173 239.992554,203.884705 238.931915,202.485870 
z"/>
<path fill="#DB679B" opacity="1.000000" stroke="none" 
	d="
M242.775879,177.716721 
	C236.817902,181.216583 237.423050,187.904129 235.088058,193.051880 
	C234.626923,194.068466 234.529114,195.249847 234.098785,196.707184 
	C232.393250,195.901901 230.852676,194.744675 229.327087,193.003983 
	C231.899277,186.588058 234.456482,180.755615 237.013702,174.923157 
	C237.565018,174.933884 238.116318,174.944595 238.941376,174.968170 
	C239.409988,175.044708 239.604874,175.108398 240.085999,175.427185 
	C240.372269,175.682281 240.652008,175.844009 240.652008,175.844009 
	C241.320374,176.368454 241.988724,176.892899 242.775879,177.716721 
z"/>
<path fill="#E0B58B" opacity="1.000000" stroke="none" 
	d="
M153.174194,312.186676 
	C152.835571,309.290833 152.496948,306.394989 152.170731,303.605225 
	C157.541702,303.605225 163.114807,303.605225 169.162170,303.605225 
	C168.956223,306.082825 168.726273,308.849243 167.779968,311.909058 
	C164.842545,312.031921 162.621460,311.861420 160.875061,311.727325 
	C160.875061,309.530457 161.592438,307.040863 160.657227,305.733032 
	C159.850403,304.604736 157.162674,304.821472 156.202393,304.625977 
	C154.906296,307.862030 154.040253,310.024353 153.174194,312.186676 
z"/>
<path fill="#F56A2E" opacity="1.000000" stroke="none" 
	d="
M33.964130,204.969406 
	C33.877407,196.333115 33.799801,187.696701 33.702110,179.060532 
	C33.481724,159.577820 33.237499,140.095337 33.075771,120.612144 
	C33.069279,119.829659 33.805889,119.041008 35.425545,118.441170 
	C35.425545,146.825943 35.425545,175.210724 35.587662,204.115585 
	C35.154560,204.746918 34.559345,204.858154 33.964130,204.969406 
z"/>
<path fill="#F56A2E" opacity="1.000000" stroke="none" 
	d="
M207.970322,56.964539 
	C183.429764,57.053078 158.889252,57.149963 134.348648,57.224758 
	C127.548477,57.245483 120.748116,57.200607 113.499191,56.847908 
	C113.050537,56.509987 113.047707,56.075035 113.047707,56.075035 
	C126.141068,55.987843 139.234314,55.853092 152.327820,55.824951 
	C170.571030,55.785744 188.814423,55.826298 207.521729,56.167809 
	C207.985718,56.502907 207.970322,56.964539 207.970322,56.964539 
z"/>
<path fill="#F56A2E" opacity="1.000000" stroke="none" 
	d="
M188.933655,313.888031 
	C190.969589,313.479767 193.008057,312.708008 195.041031,312.722260 
	C208.255310,312.814728 221.468369,313.078064 234.897125,313.891357 
	C235.104523,314.667450 235.096619,314.837616 235.088715,315.007812 
	C219.999222,315.090240 204.909744,315.172638 189.419296,314.805298 
	C189.018341,314.355560 188.933655,313.888031 188.933655,313.888031 
z"/>
<path fill="#491985" opacity="1.000000" stroke="none" 
	d="
M153.105560,312.309631 
	C154.040253,310.024353 154.906296,307.862030 156.202393,304.625977 
	C157.162674,304.821472 159.850403,304.604736 160.657227,305.733032 
	C161.592438,307.040863 160.875061,309.530457 160.875061,311.727325 
	C162.621460,311.861420 164.842545,312.031921 167.490143,312.229034 
	C168.030457,312.543640 168.089584,312.842499 167.617004,313.425964 
	C162.441895,313.371216 157.743820,313.042633 153.045761,312.714081 
	C153.045761,312.714081 153.036942,312.432587 153.105560,312.309631 
z"/>
<path fill="#E3798A" opacity="1.000000" stroke="none" 
	d="
M84.979408,56.981003 
	C84.225723,56.899902 82.813812,56.829510 82.812294,56.736168 
	C82.708717,50.369946 82.718361,44.001877 82.718361,37.633968 
	C83.497032,37.629284 84.275703,37.624599 85.054375,37.619919 
	C85.054375,43.461903 85.054375,49.303890 84.980301,55.802444 
	C84.930618,56.633015 84.955009,56.807011 84.979408,56.981003 
z"/>
<path fill="#E0B58B" opacity="1.000000" stroke="none" 
	d="
M246.761337,58.969532 
	C246.043488,53.606075 245.228943,48.232925 247.193970,43.138313 
	C247.718369,43.172440 248.242767,43.206562 248.767166,43.240685 
	C248.767166,51.374775 248.767166,59.508862 248.070328,67.672859 
	C247.169449,64.791687 246.965393,61.880611 246.761337,58.969532 
z"/>
<path fill="#C19793" opacity="1.000000" stroke="none" 
	d="
M44.820557,207.058273 
	C44.450840,211.296707 46.857761,216.005280 42.082111,219.531036 
	C40.877068,219.451080 40.286694,219.441879 39.696323,219.432678 
	C39.696323,219.432678 39.495407,219.620056 39.615425,219.191742 
	C40.171013,215.367462 40.642807,211.975632 41.031151,208.574265 
	C41.366123,205.640305 42.899479,205.916412 44.820557,207.058273 
z"/>
<path fill="#EC9984" opacity="1.000000" stroke="none" 
	d="
M225.845352,78.468124 
	C224.669418,80.375954 223.160294,81.941200 221.883987,83.677574 
	C220.579590,85.452156 219.488785,87.385513 218.332291,89.266457 
	C217.416763,90.755501 216.543259,92.270386 215.325531,93.886894 
	C217.191071,88.761200 219.382126,83.522400 221.876709,78.094513 
	C223.324921,78.003845 224.469635,78.102242 225.845352,78.468124 
z"/>
<path fill="#BD6D81" opacity="1.000000" stroke="none" 
	d="
M161.899200,20.925386 
	C164.842758,20.030443 167.636215,19.914869 167.814911,23.339846 
	C167.889603,24.771801 166.061508,27.095427 164.587997,27.645128 
	C161.814163,28.679924 159.765060,27.741896 161.105896,24.052046 
	C161.434601,23.147486 161.438065,22.124743 161.899200,20.925386 
z"/>
<path fill="#BD6D81" opacity="1.000000" stroke="none" 
	d="
M54.990135,198.947327 
	C52.952728,198.947327 50.915321,198.947327 48.101803,198.947327 
	C49.381554,195.532883 50.494114,192.564514 51.544472,189.762100 
	C53.156124,190.607498 54.593990,191.361725 56.175591,192.397217 
	C56.319321,192.678482 56.009502,192.985367 55.603622,192.981903 
	C55.159782,194.991592 55.121819,197.004745 55.043159,199.023193 
	C55.002457,199.028488 54.990135,198.947327 54.990135,198.947327 
z"/>
<path fill="#866162" opacity="1.000000" stroke="none" 
	d="
M152.624054,312.826355 
	C157.743820,313.042633 162.441895,313.371216 167.600830,313.655243 
	C174.709808,313.720520 181.357880,313.830292 188.469818,313.914062 
	C188.933655,313.888031 189.018341,314.355560 188.991730,314.591125 
	C175.638184,314.857758 162.311234,314.888794 148.522156,314.914825 
	C148.018677,314.561676 147.977310,314.213531 147.917755,313.602600 
	C149.333832,313.206116 150.768097,313.072357 152.624054,312.826355 
z"/>
<path fill="#E0B58B" opacity="1.000000" stroke="none" 
	d="
M44.915375,206.673279 
	C42.899479,205.916412 41.366123,205.640305 41.031151,208.574265 
	C40.642807,211.975632 40.171013,215.367462 39.511162,219.102310 
	C38.855751,217.793930 38.424618,216.146683 38.061737,213.720383 
	C38.111912,210.017868 38.093830,207.094421 38.075752,204.170959 
	C39.124126,204.439560 40.172501,204.708176 41.884964,204.845840 
	C42.966576,204.023117 43.384094,203.331345 43.801613,202.639572 
	C44.204475,203.855804 44.607334,205.072052 44.915375,206.673279 
z"/>
<path fill="#E67F89" opacity="1.000000" stroke="none" 
	d="
M155.678497,20.754795 
	C156.987305,21.360693 157.864624,21.989960 158.741943,22.619221 
	C156.269485,24.153297 160.164169,31.107071 153.035477,28.799978 
	C153.890778,26.203531 150.238831,22.487692 155.678497,20.754795 
z"/>
<path fill="#F56A2E" opacity="1.000000" stroke="none" 
	d="
M33.726616,259.984131 
	C33.728050,251.468063 33.728050,243.449173 33.728050,235.430267 
	C34.103008,235.437088 34.477970,235.443909 34.852928,235.450729 
	C34.852928,247.788895 34.852928,260.127075 34.852928,272.465240 
	C34.477013,272.476379 34.101093,272.487488 33.725178,272.498627 
	C33.725178,268.492859 33.725178,264.487091 33.726616,259.984131 
z"/>
<path fill="#714186" opacity="1.000000" stroke="none" 
	d="
M37.749519,204.129730 
	C38.093830,207.094421 38.111912,210.017868 37.953850,213.332306 
	C35.234619,214.356812 33.658531,213.859146 33.957615,210.739578 
	C34.111702,209.132416 33.956657,207.495590 33.952713,205.420792 
	C34.559345,204.858154 35.154560,204.746918 35.931675,204.384796 
	C36.550144,204.118790 36.986713,204.103638 37.749519,204.129730 
z"/>
<path fill="#3D283E" opacity="1.000000" stroke="none" 
	d="
M208.440491,56.958992 
	C207.970322,56.964539 207.985718,56.502907 207.978470,56.272263 
	C219.849045,56.041622 231.726852,56.041622 243.604675,56.041622 
	C243.604523,56.345562 243.604385,56.649506 243.604233,56.953445 
	C232.039703,56.953445 220.475174,56.953445 208.440491,56.958992 
z"/>
<path fill="#3D283E" opacity="1.000000" stroke="none" 
	d="
M246.494720,59.292450 
	C246.965393,61.880611 247.169449,64.791687 247.700500,67.914185 
	C247.556305,73.207603 247.085098,78.289612 246.613876,83.371613 
	C246.485291,83.368973 246.356689,83.366325 246.228104,83.363686 
	C246.228104,75.447578 246.228104,67.531479 246.494720,59.292450 
z"/>
<path fill="#E0B58B" opacity="1.000000" stroke="none" 
	d="
M248.109406,327.314209 
	C247.606537,326.598816 247.241547,325.623566 247.222992,324.641815 
	C247.152740,320.921570 247.194717,317.199188 247.194717,313.565643 
	C249.338058,313.786255 250.103241,319.256287 248.109406,327.314209 
z"/>
<path fill="#491985" opacity="1.000000" stroke="none" 
	d="
M62.168571,197.890564 
	C62.168571,199.997986 62.168571,202.105408 62.168571,203.970734 
	C59.924698,202.311584 58.106995,200.967545 56.482582,199.222046 
	C58.506767,198.510574 60.337669,198.200562 62.168571,197.890564 
z"/>
<path fill="#A67D69" opacity="1.000000" stroke="none" 
	d="
M216.316788,325.992676 
	C217.207489,326.093170 217.676590,326.199585 218.145691,326.306000 
	C218.142761,326.437195 218.139847,326.568390 218.136932,326.699585 
	C209.514603,326.699585 200.892273,326.699585 192.269928,326.699585 
	C192.264130,326.465912 192.258331,326.232208 192.252533,325.998535 
	C200.133408,325.998535 208.014297,325.998535 216.316788,325.992676 
z"/>
<path fill="#3D283E" opacity="1.000000" stroke="none" 
	d="
M85.449142,56.962852 
	C84.955009,56.807011 84.930618,56.633015 85.007874,56.216084 
	C94.108727,56.019775 103.107941,56.066402 112.577438,56.094032 
	C113.047707,56.075035 113.050537,56.509987 113.046814,56.727196 
	C104.001678,56.944504 94.960281,56.944603 85.449142,56.962852 
z"/>
<path fill="#E0B58B" opacity="1.000000" stroke="none" 
	d="
M62.009560,197.601318 
	C60.337669,198.200562 58.506767,198.510574 56.294640,198.936127 
	C55.913414,199.051682 55.461765,198.911041 55.225952,198.929184 
	C54.990135,198.947327 55.002457,199.028488 55.194038,198.715149 
	C55.901871,196.965088 56.418125,195.528397 56.955215,193.800659 
	C56.977169,193.315125 56.978287,193.120605 56.979408,192.926086 
	C57.957748,192.926086 58.936089,192.926086 59.626465,192.926086 
	C60.451309,194.552719 61.150928,195.932388 62.009560,197.601318 
z"/>
<path fill="#DC837E" opacity="1.000000" stroke="none" 
	d="
M201.621735,289.346802 
	C202.948654,289.142090 204.627045,289.047913 206.672684,289.004791 
	C205.351013,289.189667 203.662109,289.323517 201.621735,289.346802 
z"/>
<path fill="#DC837E" opacity="1.000000" stroke="none" 
	d="
M82.241104,115.444855 
	C82.434273,116.487556 82.542160,117.934868 82.496063,119.665565 
	C82.279999,118.582458 82.217903,117.215965 82.241104,115.444855 
z"/>
<path fill="#DC837E" opacity="1.000000" stroke="none" 
	d="
M82.111603,104.414505 
	C82.320442,105.464783 82.467880,106.925934 82.452026,108.673424 
	C82.209229,107.581635 82.129715,106.203506 82.111603,104.414505 
z"/>
<path fill="#080402" opacity="1.000000" stroke="none" 
	d="
M235.328644,315.003967 
	C235.096619,314.837616 235.104523,314.667450 235.165039,314.247253 
	C235.735443,314.184631 236.253235,314.372040 236.771027,314.559448 
	C236.370193,314.706329 235.969376,314.853210 235.328644,315.003967 
z"/>
<path fill="#C19793" opacity="1.000000" stroke="none" 
	d="
M43.609238,202.872986 
	C43.384094,203.331345 42.966576,204.023117 42.229336,204.809448 
	C42.412025,204.304825 42.914444,203.705612 43.609238,202.872986 
z"/>
<path fill="#D65BBB" opacity="1.000000" stroke="none" 
	d="
M245.383392,180.484482 
	C245.056519,180.396317 244.616043,180.037109 244.071732,179.404892 
	C244.401871,179.492401 244.835846,179.852921 245.383392,180.484482 
z"/>
<path fill="#E0B58B" opacity="1.000000" stroke="none" 
	d="
M39.910614,219.668518 
	C40.286694,219.441879 40.877068,219.451080 41.721985,219.619080 
	C41.359325,219.820053 40.742115,219.862213 39.910614,219.668518 
z"/>
<path fill="#E08383" opacity="1.000000" stroke="none" 
	d="
M240.646545,175.716736 
	C240.652008,175.844009 240.372269,175.682281 240.303650,175.644455 
	C240.235016,175.606628 240.432159,175.444885 240.432159,175.444885 
	C240.432159,175.444885 240.641083,175.589462 240.646545,175.716736 
z"/>
<path fill="#BD6D81" opacity="1.000000" stroke="none" 
	d="
M56.959778,192.758636 
	C56.978287,193.120605 56.977169,193.315125 56.760765,193.652420 
	C56.306290,193.565323 56.127636,193.295380 56.009502,192.985367 
	C56.009502,192.985367 56.319321,192.678482 56.489368,192.541412 
	C56.659416,192.404358 56.940151,192.591171 56.959778,192.758636 
z"/>
<path fill="#F9C99A" opacity="1.000000" stroke="none" 
	d="
M86.830261,124.464005 
	C86.869606,113.651970 86.972885,103.305222 87.102570,92.493279 
	C87.304977,92.049301 87.480972,92.070534 87.843964,92.552490 
	C88.068336,126.001381 88.105728,158.989563 88.071594,192.443451 
	C87.941208,217.420853 87.882347,241.932541 87.635712,265.994965 
	C86.980095,264.696045 86.512253,263.846375 86.044418,262.996704 
	C86.349091,219.966049 86.656303,176.935394 86.952942,133.904694 
	C86.973572,130.913177 86.915611,127.921104 86.830261,124.464005 
z"/>
<path fill="#F3AC8A" opacity="1.000000" stroke="none" 
	d="
M89.055374,286.949097 
	C88.804985,287.389954 88.554604,287.830811 88.147072,288.468567 
	C87.314522,287.369263 86.120613,286.097778 86.057510,284.772491 
	C85.837349,280.148773 86.008255,275.506470 86.360947,270.417542 
	C87.084267,269.968567 87.477173,269.973297 87.942703,270.430573 
	C88.330833,274.413574 88.646355,277.944061 88.836533,281.772888 
	C88.825920,283.697174 88.940651,285.323151 89.055374,286.949097 
z"/>
<path fill="#F9C99A" opacity="1.000000" stroke="none" 
	d="
M87.870087,269.978027 
	C87.477173,269.973297 87.084267,269.968567 86.398590,269.946045 
	C86.088516,269.205200 86.071213,268.482208 86.507980,267.246033 
	C87.263733,266.638245 87.565414,266.543579 87.926788,266.799866 
	C87.947670,268.093201 87.908882,269.035614 87.870087,269.978027 
z"/>
<path fill="#F3AC8A" opacity="1.000000" stroke="none" 
	d="
M87.867104,266.448914 
	C87.565414,266.543579 87.263733,266.638245 86.512764,266.883545 
	C86.037163,265.956787 86.010849,264.879364 86.014481,263.399292 
	C86.512253,263.846375 86.980095,264.696045 87.610573,265.967896 
	C87.773209,266.390045 87.867104,266.448914 87.867104,266.448914 
z"/>
<path fill="#020102" opacity="1.000000" stroke="none" 
	d="
M92.714188,94.979614 
	C93.683350,94.036713 94.556801,92.439888 95.640755,92.281235 
	C98.238953,91.900932 100.936249,92.185684 103.593285,92.221504 
	C111.180298,92.323784 111.180244,92.327606 111.043121,100.824623 
	C111.008987,110.822678 111.008987,120.033974 111.008987,129.245270 
	C111.637955,129.260971 112.266914,129.276672 112.895882,129.292389 
	C112.895882,119.857269 112.895882,110.422157 112.895882,100.987045 
	C112.895882,98.355919 112.895882,95.724800 112.895882,92.038895 
	C123.228539,92.038895 133.177582,92.038895 144.018448,92.032150 
	C163.941895,93.006104 182.973511,93.986786 202.005127,94.967468 
	C220.695038,101.082863 233.472198,113.060959 239.076050,132.621765 
	C241.048843,144.738861 241.488785,156.302032 234.288574,166.891663 
	C233.224960,166.553558 232.671783,166.269577 231.754700,165.852448 
	C224.951340,165.437195 224.541458,160.663315 224.878479,154.288757 
	C222.793243,157.454620 222.055084,159.666077 220.523148,160.690262 
	C216.440323,163.419861 218.634811,165.232895 220.991318,167.653793 
	C220.645981,171.344574 221.679916,173.279648 225.429321,173.145386 
	C226.252075,173.115921 227.116974,174.263107 227.962463,174.868408 
	C222.489059,178.242691 216.997375,181.588013 211.556854,185.014526 
	C210.398712,185.743942 209.426727,186.768906 208.665222,187.834290 
	C212.339996,189.570724 215.743271,191.079376 219.093109,192.698547 
	C244.105133,204.788300 254.955124,235.215302 242.762543,260.771545 
	C236.474182,265.102997 230.668640,269.037323 224.660492,272.997528 
	C224.457870,273.023438 224.096100,273.214752 223.819366,273.144653 
	C223.090027,273.381744 222.637421,273.688965 221.811646,274.062256 
	C219.707870,274.907349 217.949600,275.631256 216.254944,276.481903 
	C214.764175,277.230225 213.344574,278.120331 211.506332,278.961304 
	C206.079636,279.040344 201.040161,279.105927 195.565063,279.099365 
	C192.768478,278.962128 190.407516,278.897034 187.785980,278.488495 
	C177.695358,278.112579 167.865311,278.080109 157.846527,277.717499 
	C149.778931,277.663422 141.900070,277.939514 133.609818,278.294617 
	C126.541016,278.569519 119.883606,278.765472 113.142464,278.607513 
	C112.149391,274.178680 110.598160,278.426056 109.227081,278.227539 
	C103.608612,277.413849 97.819366,277.779449 92.075043,277.261932 
	C91.738876,271.228027 91.420631,265.643158 91.485336,259.843750 
	C91.901718,222.761871 91.935150,185.894577 92.094505,148.636017 
	C92.385010,130.489700 92.549599,112.734657 92.714188,94.979614 
M195.457199,116.111038 
	C195.055237,116.012314 194.653290,115.913597 193.672012,115.310120 
	C192.147537,115.173622 190.623062,115.037125 188.368469,114.493881 
	C178.307861,114.493881 168.247253,114.493881 157.534805,114.493881 
	C157.534805,107.593819 157.534805,101.900650 157.534805,96.207481 
	C157.075394,96.215042 156.615967,96.222603 156.156555,96.230164 
	C156.156555,102.049789 156.156555,107.869415 156.156555,114.082840 
	C150.013977,114.082840 144.570312,114.082840 138.259888,113.973824 
	C135.183502,114.323601 132.066956,114.489449 129.057678,115.146530 
	C128.259445,115.320824 127.790932,117.005287 127.031471,118.791054 
	C127.079041,119.862396 127.126610,120.933739 127.033279,122.801353 
	C127.074585,123.876038 127.115891,124.950722 126.765175,126.739334 
	C126.561897,129.132462 126.358627,131.525589 126.055214,134.863007 
	C126.091278,145.933762 126.127342,157.004501 126.006340,168.892517 
	C127.062439,169.711395 128.091400,171.199051 129.178940,171.243195 
	C137.763763,171.591660 146.359756,171.664749 155.896652,171.851318 
	C163.966827,171.923935 172.037994,172.099823 180.106750,172.023178 
	C183.835968,171.987762 187.560516,171.459518 192.051392,171.111847 
	C201.848923,169.153717 208.745773,163.777023 212.636154,153.781082 
	C213.377731,151.456116 214.222290,149.158295 214.843506,146.801590 
	C217.894424,135.227234 211.096924,122.025078 199.719162,117.408203 
	C198.488312,117.060532 197.257477,116.712852 195.457199,116.111038 
M126.140892,203.865158 
	C126.191338,218.572662 126.241783,233.280182 126.201691,248.739670 
	C126.237556,249.494476 126.273422,250.249298 126.094040,251.669983 
	C126.393776,252.431122 126.693512,253.192276 127.882202,254.281189 
	C137.917664,254.438141 147.953140,254.595078 158.914688,254.925781 
	C162.715042,254.943863 166.518585,255.068893 170.315048,254.955994 
	C176.685455,254.766556 183.051376,254.425644 190.226242,254.191345 
	C196.599548,253.519760 202.823196,252.490875 207.821625,246.818130 
	C209.858215,243.257217 211.894806,239.696289 214.345612,235.600006 
	C214.257462,235.165710 214.169312,234.731400 214.638123,233.757324 
	C220.847214,215.947372 210.877396,199.312241 192.803757,197.431839 
	C190.903305,197.609543 189.002838,197.787247 186.534470,197.462372 
	C185.478836,197.119171 184.425903,196.485794 183.367188,196.475998 
	C165.420639,196.310104 147.473373,196.187180 129.526382,196.202591 
	C128.459442,196.203506 127.393593,197.451553 126.261574,198.921448 
	C126.290672,200.260605 126.319771,201.599747 126.140892,203.865158 
z"/>
<path fill="#DB679B" opacity="1.000000" stroke="none" 
	d="
M224.863098,272.971619 
	C230.668640,269.037323 236.474182,265.102997 242.611694,261.105103 
	C238.091339,266.833740 233.239014,272.625946 227.864227,278.723389 
	C226.871353,279.344452 226.400909,279.660278 225.930466,279.976074 
	C225.930466,279.976074 225.483475,280.011932 225.260742,280.033569 
	C224.531586,280.284821 224.025162,280.514404 223.289551,280.509460 
	C224.001236,278.799408 225.173508,277.411255 225.778671,275.808929 
	C226.053162,275.082092 225.203033,273.930511 224.863098,272.971619 
z"/>
<path fill="#DF6D9C" opacity="1.000000" stroke="none" 
	d="
M236.769745,174.832321 
	C234.456482,180.755615 231.899277,186.588058 229.156677,192.728043 
	C228.394440,192.532623 227.817596,192.029678 227.317780,190.989319 
	C226.928635,188.300537 226.462479,186.149170 225.996338,183.997818 
	C229.506165,180.912384 233.015976,177.826935 236.769745,174.832321 
z"/>
<path fill="#E3798A" opacity="1.000000" stroke="none" 
	d="
M225.653366,184.059265 
	C226.462479,186.149170 226.928635,188.300537 227.166061,190.742508 
	C224.461685,189.858871 221.986023,188.684616 219.303741,187.252716 
	C221.168213,186.036957 223.239319,185.078842 225.653366,184.059265 
z"/>
<path fill="#E5988A" opacity="1.000000" stroke="none" 
	d="
M226.184860,279.982544 
	C226.400909,279.660278 226.871353,279.344452 227.613983,278.940918 
	C227.403870,279.231812 226.921570,279.610413 226.184860,279.982544 
z"/>
<path fill="#E38685" opacity="1.000000" stroke="none" 
	d="
M202.000793,94.575775 
	C182.973511,93.986786 163.941895,93.006104 144.445099,91.953354 
	C135.889206,91.584206 127.792152,91.393288 119.712433,90.911568 
	C117.813850,90.798370 115.973824,89.703079 114.031456,88.698532 
	C119.658279,88.242249 125.360504,88.147041 131.529694,88.024185 
	C133.060715,88.046486 134.124786,88.096420 135.705597,88.238052 
	C136.222321,88.329758 136.639557,88.363197 136.639557,88.363197 
	C136.639557,88.363197 137.011459,88.159447 137.011459,88.159439 
	C142.027832,88.114746 147.044220,88.070053 152.526047,88.000450 
	C158.017487,88.009499 163.043488,88.043457 168.537201,88.074432 
	C173.342270,88.345795 177.679596,88.620140 182.471832,88.870682 
	C188.662811,89.242844 194.398865,89.638802 200.581757,90.054665 
	C201.200562,90.339249 201.407516,90.572929 201.838806,90.917778 
	C202.017578,92.101318 202.007034,93.142700 202.000793,94.575775 
z"/>
<path fill="#EC9984" opacity="1.000000" stroke="none" 
	d="
M225.092560,101.324814 
	C225.768005,97.974487 226.523926,94.884750 227.285568,91.796417 
	C228.041031,88.733101 228.802246,85.671204 229.782318,82.304764 
	C232.470566,86.887230 230.307617,98.907364 226.320557,102.160744 
	C226.185287,102.271126 225.568100,101.790932 225.092560,101.324814 
z"/>
<path fill="#E08383" opacity="1.000000" stroke="none" 
	d="
M238.938446,119.224014 
	C239.305161,119.476746 239.592514,119.952240 239.926010,120.706268 
	C239.601135,120.472122 239.230118,119.959450 238.938446,119.224014 
z"/>
<path fill="#E67F89" opacity="1.000000" stroke="none" 
	d="
M210.020584,92.981384 
	C210.327957,93.074593 210.620483,93.183327 210.913010,93.292068 
	C210.678787,93.290428 210.444550,93.288795 210.095444,93.159348 
	C209.980560,93.031540 210.005737,92.996910 210.020584,92.981384 
z"/>
<path fill="#CA54CC" opacity="1.000000" stroke="none" 
	d="
M162.976196,286.005737 
	C159.066910,286.322266 159.869293,282.919434 158.925827,280.474243 
	C158.916122,280.061371 159.133545,280.009155 159.436279,280.040710 
	C160.142471,280.119019 160.545929,280.165833 160.987228,280.534058 
	C164.655701,281.489197 168.300674,282.721069 171.914108,282.634674 
	C179.951126,282.442413 187.972336,281.590424 196.229736,281.180786 
	C199.018265,281.243378 200.798965,282.116455 200.550003,284.971008 
	C189.627075,284.983490 179.174362,284.935547 168.723007,285.034363 
	C166.804520,285.052521 164.891663,285.666687 162.976196,286.005737 
z"/>
<path fill="#D257C7" opacity="1.000000" stroke="none" 
	d="
M201.020676,284.961060 
	C200.798965,282.116455 199.018265,281.243378 196.229736,280.874725 
	C196.000214,279.987274 196.000443,279.579407 196.000671,279.171509 
	C201.040161,279.105927 206.079636,279.040344 211.900284,278.979858 
	C216.250519,278.956482 216.011597,281.494904 215.987045,283.888824 
	C214.181015,284.480316 212.374985,285.071808 209.882996,285.528076 
	C206.471588,285.248901 203.746124,285.104980 201.020676,284.961060 
z"/>
<path fill="#D65BBB" opacity="1.000000" stroke="none" 
	d="
M216.350189,283.912201 
	C216.011597,281.494904 216.250519,278.956482 212.287491,278.966370 
	C213.344574,278.120331 214.764175,277.230225 216.254944,276.481903 
	C217.949600,275.631256 219.707870,274.907349 222.076782,274.047485 
	C223.175430,273.716034 223.635773,273.465393 224.096100,273.214752 
	C224.096100,273.214752 224.457870,273.023438 224.660477,272.997528 
	C225.203033,273.930511 226.053162,275.082092 225.778671,275.808929 
	C225.173508,277.411255 224.001236,278.799408 223.032990,280.619568 
	C220.908173,281.954620 218.810760,282.945099 216.350189,283.912201 
z"/>
<path fill="#B950CD" opacity="1.000000" stroke="none" 
	d="
M155.325699,283.963959 
	C153.704269,284.670471 152.091156,285.966553 150.460098,285.989532 
	C138.247040,286.161865 126.030441,286.082733 113.368622,285.661194 
	C113.279686,283.835785 113.637077,282.431488 114.037720,281.410828 
	C115.196587,282.533875 116.286171,283.870087 117.431847,283.920074 
	C128.373535,284.397186 139.325378,284.636749 150.272751,284.992035 
	C153.122269,285.084503 154.175095,283.668091 153.991943,280.776794 
	C154.000168,280.543701 154.021271,280.077698 154.051758,279.869568 
	C154.082260,279.661438 154.173676,279.250793 154.362274,279.228210 
	C154.550888,279.205597 154.926086,279.145874 154.943222,279.522217 
	C155.050186,280.905426 155.140015,281.912323 155.224716,283.183044 
	C155.254959,283.619263 155.290329,283.791626 155.325699,283.963959 
z"/>
<path fill="#DF6D9C" opacity="1.000000" stroke="none" 
	d="
M103.046173,285.939331 
	C102.874001,285.955719 102.701836,285.972076 101.971352,285.762573 
	C98.213799,284.706879 94.313126,284.829712 94.217972,279.939026 
	C95.306068,279.918823 96.176903,280.038727 97.150238,280.237488 
	C97.252739,280.316376 97.623459,280.356384 97.623459,280.356384 
	C97.623459,280.356384 97.955040,280.170532 98.399567,280.157227 
	C100.919212,280.156219 102.994324,280.168549 105.285919,280.341492 
	C106.203140,280.804047 106.903885,281.105957 107.089348,281.185852 
	C106.352730,282.527710 105.681320,283.750763 104.737900,285.040283 
	C103.992645,285.384308 103.519409,285.661804 103.046173,285.939331 
z"/>
<path fill="#D65BBB" opacity="1.000000" stroke="none" 
	d="
M94.000710,280.079102 
	C94.313126,284.829712 98.213799,284.706879 101.712029,285.755707 
	C97.967812,286.303589 93.924599,286.632446 89.468384,286.955200 
	C88.940651,285.323151 88.825920,283.697174 88.910110,281.424500 
	C89.425613,280.437042 89.742188,280.096344 90.315483,279.801941 
	C90.747360,279.847778 90.922516,279.847351 91.457733,279.903107 
	C92.545441,279.999237 93.273071,280.039185 94.000710,280.079102 
z"/>
<path fill="#B950CD" opacity="1.000000" stroke="none" 
	d="
M200.550003,284.971008 
	C203.746124,285.104980 206.471588,285.248901 209.529358,285.579956 
	C194.546387,285.874878 179.231110,285.982697 163.446014,286.048126 
	C164.891663,285.666687 166.804520,285.052521 168.723007,285.034363 
	C179.174362,284.935547 189.627075,284.983490 200.550003,284.971008 
z"/>
<path fill="#DC837E" opacity="1.000000" stroke="none" 
	d="
M155.606171,283.836304 
	C155.290329,283.791626 155.254959,283.619263 155.396820,282.931549 
	C155.358047,281.326080 155.142075,280.235962 154.926086,279.145874 
	C154.926086,279.145874 154.550888,279.205597 153.882401,279.128418 
	C146.816345,278.772675 140.418777,278.494141 134.021210,278.215637 
	C141.900070,277.939514 149.778931,277.663422 157.753815,277.973663 
	C157.805145,278.736420 157.760437,278.912811 157.715744,279.089233 
	C157.106033,280.629028 156.496338,282.168854 155.606171,283.836304 
z"/>
<path fill="#A67D69" opacity="1.000000" stroke="none" 
	d="
M157.858856,279.289001 
	C157.760437,278.912811 157.805145,278.736420 157.942566,278.303833 
	C167.865311,278.080109 177.695358,278.112579 187.387329,278.519043 
	C186.450821,278.968750 185.652390,279.044525 184.397903,279.082825 
	C179.836365,279.023468 175.725296,278.858887 171.626953,279.019348 
	C167.455948,279.182678 163.297501,279.665985 159.133545,280.009155 
	C159.133545,280.009155 158.916122,280.061371 158.816025,280.112610 
	C158.443039,279.975769 158.205063,279.750763 157.858856,279.289001 
z"/>
<path fill="#D65BBB" opacity="1.000000" stroke="none" 
	d="
M103.493988,285.952698 
	C103.519409,285.661804 103.992645,285.384308 105.142731,285.040222 
	C109.399567,285.333649 111.348335,283.928528 111.397842,280.080383 
	C112.153580,279.995636 112.585556,279.948334 113.257408,279.940613 
	C113.497284,279.980225 113.977371,280.057343 113.982971,280.299805 
	C113.988564,280.542236 113.994476,281.027222 113.994476,281.027222 
	C113.637077,282.431488 113.279686,283.835785 112.893013,285.616516 
	C109.889755,285.984039 106.915779,285.975067 103.493988,285.952698 
z"/>
<path fill="#030204" opacity="1.000000" stroke="none" 
	d="
M228.244812,174.695374 
	C227.116974,174.263107 226.252075,173.115921 225.429321,173.145386 
	C221.679916,173.279648 220.645981,171.344574 221.187180,167.430557 
	C224.959763,166.529282 228.539169,166.257446 232.118591,165.985596 
	C232.671783,166.269577 233.224960,166.553558 233.981171,167.078964 
	C232.298508,169.721039 230.412811,172.121689 228.244812,174.695374 
z"/>
<path fill="#DF6D9C" opacity="1.000000" stroke="none" 
	d="
M136.755310,88.140839 
	C137.011459,88.159447 136.639557,88.363197 136.639557,88.363197 
	C136.639557,88.363197 136.222321,88.329758 136.104889,88.248192 
	C136.158035,88.151825 136.328598,88.137024 136.755310,88.140839 
z"/>
<path fill="#49299F" opacity="1.000000" stroke="none" 
	d="
M88.143120,191.977737 
	C88.105728,158.989563 88.068336,126.001381 88.109787,92.559410 
	C88.827400,92.118530 89.466179,92.131439 90.504242,92.569008 
	C90.871483,102.679253 90.839432,112.364830 90.628960,122.059837 
	C90.450539,122.069260 90.099274,122.135094 90.054779,121.659760 
	C90.010277,112.381927 90.010277,103.579414 90.010277,94.776909 
	C89.649010,94.777191 89.287743,94.777481 88.926476,94.777763 
	C88.926476,127.177391 88.926476,159.577011 88.730637,191.978149 
	C88.534798,191.979675 88.143120,191.977737 88.143120,191.977737 
z"/>
<path fill="#E0B58B" opacity="1.000000" stroke="none" 
	d="
M90.807388,122.050415 
	C90.839432,112.364830 90.871483,102.679253 90.822037,92.537750 
	C91.286873,92.880630 91.833191,93.679420 92.546852,94.728912 
	C92.549599,112.734657 92.385010,130.489700 91.880402,148.630707 
	C91.540382,149.016663 91.112099,149.023941 91.027344,148.560425 
	C90.897530,139.414734 90.852463,130.732574 90.807388,122.050415 
z"/>
<path fill="#E0B58B" opacity="1.000000" stroke="none" 
	d="
M112.472778,100.937149 
	C112.895882,110.422157 112.895882,119.857269 112.895882,129.292389 
	C112.266914,129.276672 111.637955,129.260971 111.008987,129.245270 
	C111.008987,120.033974 111.008987,110.822678 111.105896,101.202309 
	C111.485100,100.824570 111.767387,100.855911 112.472778,100.937149 
z"/>
<path fill="#3D283E" opacity="1.000000" stroke="none" 
	d="
M55.603622,192.981903 
	C56.127636,193.295380 56.306290,193.565323 56.739925,193.943451 
	C56.418125,195.528397 55.901871,196.965088 55.234741,198.709839 
	C55.121819,197.004745 55.159782,194.991592 55.603622,192.981903 
z"/>
<path fill="#592E92" opacity="1.000000" stroke="none" 
	d="
M88.071594,192.443451 
	C88.143120,191.977737 88.534798,191.979675 88.759323,192.448639 
	C88.983841,199.624710 88.983841,206.331833 88.983841,213.038971 
	C89.384583,213.030624 89.785332,213.022278 90.186073,213.013931 
	C90.186073,194.313202 90.186073,175.612457 90.342560,156.928345 
	C90.499046,156.944977 90.812065,156.977829 90.889862,157.442139 
	C90.916710,182.929276 90.865761,207.952087 90.647964,232.955185 
	C90.481117,232.935471 90.147057,232.899124 90.113724,232.454529 
	C90.080383,228.902008 90.080383,225.794052 90.080383,222.686111 
	C89.208755,223.040543 89.033051,223.349091 89.032990,223.657669 
	C89.030479,235.427933 89.044098,247.198212 89.049492,259.407837 
	C89.381866,266.483337 89.720306,273.119476 90.058754,279.755615 
	C89.742188,280.096344 89.425613,280.437042 89.035454,281.126129 
	C88.646355,277.944061 88.330833,274.413574 87.942703,270.430542 
	C87.908882,269.035614 87.947670,268.093201 87.926788,266.799866 
	C87.867104,266.448914 87.773209,266.390045 87.798340,266.417114 
	C87.882347,241.932541 87.941208,217.420853 88.071594,192.443451 
z"/>
<path fill="#E78D83" opacity="1.000000" stroke="none" 
	d="
M189.098587,114.900635 
	C190.623062,115.037125 192.147537,115.173622 193.548431,115.598373 
	C192.026932,116.680420 189.343933,117.800255 189.448593,118.212776 
	C189.962204,120.237053 190.765289,122.691582 192.319016,123.826836 
	C194.494431,125.416336 197.424103,125.973518 200.303711,127.149742 
	C202.386307,128.889404 204.196289,130.451675 206.160446,132.326996 
	C209.725342,138.945786 213.522537,145.148880 211.373962,152.863602 
	C211.278854,153.205124 211.802811,153.719040 212.038422,154.152664 
	C208.745773,163.777023 201.848923,169.153717 191.182587,171.076019 
	C180.925827,171.017136 171.537430,170.936478 162.150269,171.010742 
	C159.748947,171.029709 157.351532,171.538696 154.952316,171.822540 
	C146.359756,171.664749 137.763763,171.591660 129.178940,171.243195 
	C128.091400,171.199051 127.062439,169.711395 126.389771,168.183380 
	C126.854347,162.351059 127.083138,157.224854 126.978333,152.105453 
	C126.854156,146.040146 126.442451,139.980698 126.155365,133.918716 
	C126.358627,131.525589 126.561897,129.132462 127.148247,126.692413 
	C128.248901,130.424561 130.296143,134.144592 128.032990,138.416962 
	C128.031052,139.500549 128.034088,140.222961 128.030228,141.334274 
	C128.027863,142.500992 128.032410,143.278824 128.032196,144.493500 
	C128.030365,147.267410 128.033279,149.604492 128.032349,152.294098 
	C128.031906,153.116714 128.035309,153.586777 128.033661,154.516006 
	C128.351730,159.656570 128.674850,164.337967 129.417496,169.018356 
	C131.237427,168.995071 132.637848,168.972794 134.270630,168.942535 
	C134.503006,168.934525 134.967697,168.916992 135.298401,169.080780 
	C137.428085,168.871368 139.227081,168.498169 141.403076,168.137115 
	C143.514160,168.414200 145.248276,168.679138 147.383408,168.957886 
	C148.854172,168.977493 149.923920,168.983292 151.461609,168.994019 
	C157.282852,168.990280 162.636139,168.981598 168.445831,168.980377 
	C170.722580,168.989304 172.543900,169.030807 174.363007,168.984711 
	C179.879623,168.844940 181.647583,166.177139 180.042526,160.948303 
	C179.378845,158.786133 179.334671,156.433777 179.465286,154.098694 
	C185.608017,153.316376 191.421387,153.120209 196.948364,151.760147 
	C203.949188,150.037415 206.695374,143.889526 202.807373,138.001846 
	C200.424484,134.393433 196.524704,131.070938 192.557022,129.415955 
	C188.139297,127.573242 182.871384,127.768806 177.988617,126.803787 
	C178.005554,126.348061 178.007431,126.165627 178.141357,125.658447 
	C180.003128,124.682083 181.732864,124.030464 183.451126,123.383171 
	C183.053802,122.774940 182.496506,122.147476 182.188461,121.415161 
	C179.241638,114.409492 173.576401,113.847450 168.560593,119.673111 
	C167.082047,121.390373 164.225983,121.921600 162.070221,122.661224 
	C163.427567,120.217880 164.715927,118.109680 166.277008,115.942032 
	C166.995346,115.567383 167.440933,115.252190 168.367157,114.921051 
	C175.598053,114.903610 182.348328,114.902122 189.098587,114.900635 
z"/>
<path fill="#E78D83" opacity="1.000000" stroke="none" 
	d="
M213.931396,236.135376 
	C211.894806,239.696289 209.858215,243.257217 207.264709,246.662872 
	C206.697571,244.922440 206.181427,243.111877 206.768982,241.793030 
	C208.791534,237.253082 207.473068,233.121719 205.977539,228.559662 
	C205.706726,224.936768 206.074280,221.344574 204.780594,218.510757 
	C202.002701,212.425735 195.738556,210.919937 189.631561,208.795166 
	C182.198593,208.341980 175.095078,208.131180 167.901825,207.615631 
	C167.207962,206.205856 166.603821,205.100830 166.420013,203.994232 
	C169.097412,203.567993 171.480270,203.469315 173.587311,202.656006 
	C179.331421,200.438858 184.877655,198.436081 190.375381,203.332260 
	C191.178558,204.047531 192.912430,203.717773 194.530258,204.018021 
	C196.222061,204.457870 197.599274,204.751251 199.070419,205.342163 
	C199.827301,206.065521 200.490234,206.491348 201.446899,207.069702 
	C203.884705,209.394821 206.028793,211.567413 208.142426,214.124802 
	C209.108231,215.990799 210.104507,217.472000 211.290161,219.165649 
	C211.673035,219.907852 211.866531,220.437622 211.845917,221.221664 
	C212.086685,222.655960 212.541550,223.835968 213.015900,225.342102 
	C213.033295,226.103745 213.031235,226.539246 212.796494,227.295258 
	C213.019669,230.455612 213.475540,233.295502 213.931396,236.135376 
z"/>
<path fill="#E67F89" opacity="1.000000" stroke="none" 
	d="
M126.309296,251.004105 
	C126.273422,250.249298 126.237556,249.494476 126.434753,247.999634 
	C126.836250,240.510086 127.004669,233.760590 127.509445,227.082184 
	C132.466949,229.781830 136.679306,227.861206 140.979462,226.421341 
	C141.038925,229.541107 141.014206,232.220200 140.831818,235.203720 
	C138.791885,238.344055 136.909622,241.179947 134.842178,244.304474 
	C133.758820,246.340485 132.860672,248.087860 131.904419,249.948257 
	C137.453049,249.948257 142.200256,249.948257 147.351349,249.963135 
	C148.832306,249.979202 149.909348,249.980408 151.431793,249.990326 
	C154.257339,250.008118 156.637482,250.017197 158.998123,250.373718 
	C158.648605,252.064804 158.318604,253.408401 157.988602,254.752014 
	C147.953140,254.595078 137.917664,254.438141 127.440659,253.806305 
	C126.769180,252.555634 126.539238,251.779877 126.309296,251.004105 
z"/>
<path fill="#EB8D84" opacity="1.000000" stroke="none" 
	d="
M128.037964,138.055786 
	C130.296143,134.144592 128.248901,130.424561 127.344254,126.335449 
	C127.115891,124.950722 127.074585,123.876038 127.537285,122.402489 
	C131.027344,122.336777 134.013382,122.669930 136.744476,123.267883 
	C136.347244,126.334846 134.989960,130.451843 136.309921,131.671585 
	C139.261490,134.399048 139.837036,137.670792 140.994629,141.417816 
	C141.053802,144.551865 141.022995,147.243881 140.669693,150.051331 
	C139.094131,151.595627 137.705719,152.929443 136.619995,154.475784 
	C135.030075,156.740219 133.402466,157.527542 131.011215,155.555374 
	C130.176315,154.866791 129.038300,154.545746 128.038712,154.056839 
	C128.035309,153.586777 128.031906,153.116714 128.372086,152.163956 
	C130.412811,148.968506 131.249832,146.332336 128.036957,144.056656 
	C128.032410,143.278824 128.027863,142.500992 128.318024,141.257629 
	C128.421143,139.880005 128.229553,138.967896 128.037964,138.055786 
z"/>
<path fill="#EC9984" opacity="1.000000" stroke="none" 
	d="
M205.862885,228.934113 
	C207.473068,233.121719 208.791534,237.253082 206.768982,241.793030 
	C206.181427,243.111877 206.697571,244.922440 206.959198,246.792664 
	C202.823196,252.490875 196.599548,253.519760 189.422699,254.134827 
	C187.285568,253.847717 185.951950,253.617142 184.655243,253.392960 
	C188.721619,247.984833 192.453491,243.083359 196.049225,238.084000 
	C196.262177,237.787918 195.380981,236.704910 195.010956,235.777740 
	C195.012970,235.567383 195.022415,235.146500 195.377655,235.045166 
	C199.109573,232.940598 202.486237,230.937363 205.862885,228.934113 
z"/>
<path fill="#E3798A" opacity="1.000000" stroke="none" 
	d="
M194.215652,203.871552 
	C192.912430,203.717773 191.178558,204.047531 190.375381,203.332260 
	C184.877655,198.436081 179.331421,200.438858 173.587311,202.656006 
	C171.480270,203.469315 169.097412,203.567993 165.951416,203.992859 
	C152.425766,204.335373 139.789062,204.677689 127.141998,204.683441 
	C127.151077,203.898407 127.170517,203.449951 127.555206,202.824982 
	C133.724243,202.432693 139.544647,202.411041 145.324539,201.916168 
	C148.063065,201.681717 150.724136,200.542786 153.420303,199.813629 
	C153.337494,199.409058 153.254669,199.004501 153.171860,198.599930 
	C151.790955,198.145523 150.410065,197.691132 149.494293,197.201416 
	C162.340408,197.432373 174.721390,197.698654 187.102386,197.964935 
	C189.002838,197.787247 190.903305,197.609543 192.961945,198.105286 
	C193.485306,200.476334 193.850479,202.173935 194.215652,203.871552 
z"/>
<path fill="#CB55BA" opacity="1.000000" stroke="none" 
	d="
M194.530258,204.018005 
	C193.850479,202.173935 193.485306,200.476334 193.174713,198.407166 
	C210.877396,199.312241 220.847214,215.947372 214.333252,233.591949 
	C213.695297,231.275986 213.362228,229.125366 213.029175,226.974762 
	C213.031235,226.539246 213.033295,226.103745 213.034851,224.982361 
	C212.709564,223.186783 212.384796,222.077087 212.060028,220.967377 
	C211.866531,220.437622 211.673035,219.907852 211.256348,218.810730 
	C210.079742,216.742249 209.126312,215.241135 208.172882,213.740005 
	C206.028793,211.567413 203.884705,209.394821 201.333862,206.781540 
	C200.276886,205.908783 199.626678,205.476715 198.976471,205.044647 
	C197.599274,204.751251 196.222061,204.457870 194.530258,204.018005 
z"/>
<path fill="#E78D83" opacity="1.000000" stroke="none" 
	d="
M195.008942,235.988068 
	C195.380981,236.704910 196.262177,237.787918 196.049225,238.084000 
	C192.453491,243.083359 188.721619,247.984833 184.655243,253.392960 
	C185.951950,253.617142 187.285568,253.847717 189.019165,254.113373 
	C183.051376,254.425644 176.685455,254.766556 170.315048,254.955994 
	C166.518585,255.068893 162.715042,254.943863 158.451645,254.838898 
	C158.318604,253.408401 158.648605,252.064804 159.369659,250.367188 
	C160.504807,250.007599 161.248886,250.002045 162.389557,250.008041 
	C164.854080,250.340286 166.922012,250.660965 169.434372,250.985840 
	C172.247635,250.987610 174.616455,250.985153 177.372025,250.963593 
	C181.293396,249.937363 184.991943,249.733170 187.249130,245.779953 
	C189.290512,242.204681 192.381027,239.228455 195.008942,235.988068 
z"/>
<path fill="#C459AA" opacity="1.000000" stroke="none" 
	d="
M212.337280,153.966873 
	C211.802811,153.719040 211.278854,153.205124 211.373962,152.863602 
	C213.522537,145.148880 209.725342,138.945786 206.169556,131.898315 
	C206.139679,126.062675 205.244553,121.467613 200.017746,119.000175 
	C200.009888,118.992790 200.001663,118.972839 200.013733,118.723679 
	C200.025818,118.474510 200.056793,117.976570 200.056793,117.976570 
	C211.096924,122.025078 217.894424,135.227234 214.843506,146.801590 
	C214.222290,149.158295 213.377731,151.456116 212.337280,153.966873 
z"/>
<path fill="#E98684" opacity="1.000000" stroke="none" 
	d="
M136.999435,123.003082 
	C134.013382,122.669930 131.027344,122.336777 127.607742,122.004349 
	C127.126610,120.933739 127.079041,119.862396 127.470390,118.474220 
	C137.049652,118.381958 146.189713,118.621094 155.330978,118.798012 
	C155.934311,118.809692 156.528625,118.273453 157.158203,118.117409 
	C160.100922,117.388016 163.054550,116.702614 166.004272,116.001480 
	C164.715927,118.109680 163.427567,120.217880 161.601425,122.663033 
	C153.042236,123.001015 145.020844,123.002045 136.999435,123.003082 
z"/>
<path fill="#E27393" opacity="1.000000" stroke="none" 
	d="
M166.277008,115.942032 
	C163.054550,116.702614 160.100922,117.388016 157.158203,118.117409 
	C156.528625,118.273453 155.934311,118.809692 155.330978,118.798012 
	C146.189713,118.621094 137.049652,118.381958 127.540161,118.076874 
	C127.790932,117.005287 128.259445,115.320824 129.057678,115.146530 
	C132.066956,114.489449 135.183502,114.323601 139.015579,114.268387 
	C149.143021,114.687637 158.514771,114.812309 167.886520,114.936996 
	C167.440933,115.252190 166.995346,115.567383 166.277008,115.942032 
z"/>
<path fill="#FDD97F" opacity="1.000000" stroke="none" 
	d="
M90.814819,232.974899 
	C90.865761,207.952087 90.916710,182.929276 90.954842,157.004517 
	C90.998711,153.743011 91.055405,151.383484 91.112099,149.023941 
	C91.112099,149.023941 91.540382,149.016663 91.754486,149.021973 
	C91.935150,185.894577 91.901718,222.761871 91.438255,259.372772 
	C90.943756,250.402542 90.879288,241.688721 90.814819,232.974899 
z"/>
<path fill="#DB679B" opacity="1.000000" stroke="none" 
	d="
M149.029160,197.236725 
	C150.410065,197.691132 151.790955,198.145523 153.171860,198.599930 
	C153.254669,199.004501 153.337494,199.409058 153.420303,199.813629 
	C150.724136,200.542786 148.063065,201.681717 145.324539,201.916168 
	C139.544647,202.411041 133.724243,202.432693 127.345490,202.792191 
	C126.770531,202.935898 126.348869,202.938904 126.348869,202.938904 
	C126.319771,201.599747 126.290672,200.260605 126.739655,198.473114 
	C134.488205,197.762085 141.758682,197.499405 149.029160,197.236725 
z"/>
<path fill="#E3798A" opacity="1.000000" stroke="none" 
	d="
M200.031113,126.972336 
	C197.424103,125.973518 194.494431,125.416336 192.319016,123.826836 
	C190.765289,122.691582 189.962204,120.237053 189.448593,118.212776 
	C189.343933,117.800255 192.026932,116.680420 193.838104,115.850754 
	C194.653290,115.913597 195.055237,116.012314 195.851776,116.526901 
	C197.498138,117.619453 198.749893,118.296143 200.001663,118.972839 
	C200.001663,118.972839 200.009888,118.992790 200.007812,119.442581 
	C200.014175,122.252365 200.022644,124.612343 200.031113,126.972336 
z"/>
<path fill="#A67D69" opacity="1.000000" stroke="none" 
	d="
M168.367157,114.921043 
	C158.514771,114.812309 149.143021,114.687637 139.448975,114.322899 
	C144.570312,114.082840 150.013977,114.082840 156.156555,114.082840 
	C156.156555,107.869415 156.156555,102.049789 156.156555,96.230164 
	C156.615967,96.222603 157.075394,96.215042 157.534805,96.207481 
	C157.534805,101.900650 157.534805,107.593819 157.534805,114.493881 
	C168.247253,114.493881 178.307861,114.493881 188.733521,114.697258 
	C182.348328,114.902122 175.598053,114.903610 168.367157,114.921043 
z"/>
<path fill="#BD6D81" opacity="1.000000" stroke="none" 
	d="
M149.494293,197.201401 
	C141.758682,197.499405 134.488205,197.762085 126.772476,198.072021 
	C127.393593,197.451553 128.459442,196.203506 129.526382,196.202591 
	C147.473373,196.187180 165.420639,196.310104 183.367188,196.475998 
	C184.425903,196.485794 185.478836,197.119171 186.818420,197.713654 
	C174.721390,197.698654 162.340408,197.432373 149.494293,197.201401 
z"/>
<path fill="#714186" opacity="1.000000" stroke="none" 
	d="
M90.647964,232.955185 
	C90.879288,241.688721 90.943756,250.402542 91.055305,259.587341 
	C91.420631,265.643158 91.738876,271.228027 91.829964,277.458191 
	C91.434433,278.684662 91.266052,279.265778 91.097672,279.846924 
	C90.922516,279.847351 90.747360,279.847778 90.315475,279.801941 
	C89.720306,273.119476 89.381866,266.483337 89.287613,259.073669 
	C89.736893,249.833160 89.941978,241.366135 90.147057,232.899124 
	C90.147057,232.899124 90.481117,232.935471 90.647964,232.955185 
z"/>
<path fill="#D65BBB" opacity="1.000000" stroke="none" 
	d="
M184.853958,279.120270 
	C185.652390,279.044525 186.450821,278.968750 187.647903,278.862488 
	C190.407516,278.897034 192.768478,278.962128 195.565063,279.099365 
	C196.000443,279.579407 196.000214,279.987274 196.000000,280.701233 
	C187.972336,281.590424 179.951126,282.442413 171.914108,282.634674 
	C168.300674,282.721069 164.655701,281.489197 161.458557,280.464752 
	C163.700516,280.053223 165.511398,280.085571 167.316925,280.001892 
	C173.163666,279.730957 179.008438,279.417419 184.853958,279.120270 
z"/>
<path fill="#130F29" opacity="1.000000" stroke="none" 
	d="
M231.754700,165.852448 
	C228.539169,166.257446 224.959763,166.529282 221.184479,167.024353 
	C218.634811,165.232895 216.440323,163.419861 220.523148,160.690262 
	C222.055084,159.666077 222.793243,157.454620 224.878479,154.288757 
	C224.541458,160.663315 224.951340,165.437195 231.754700,165.852448 
z"/>
<path fill="#E5988A" opacity="1.000000" stroke="none" 
	d="
M91.457733,279.903107 
	C91.266052,279.265778 91.434433,278.684662 91.847900,277.907227 
	C97.819366,277.779449 103.608612,277.413849 109.227081,278.227539 
	C110.598160,278.426056 112.149391,274.178680 113.079163,278.839874 
	C113.099586,279.426147 113.017532,279.901031 113.017532,279.901031 
	C112.585556,279.948334 112.153580,279.995636 110.965012,280.053009 
	C108.495430,280.102356 106.782433,280.141602 105.069435,280.180878 
	C102.994324,280.168549 100.919212,280.156219 98.173416,280.138794 
	C97.502739,280.133636 97.047737,280.158600 97.047737,280.158600 
	C96.176903,280.038727 95.306068,279.918823 94.217972,279.939026 
	C93.273071,280.039185 92.545441,279.999237 91.457733,279.903107 
z"/>
<path fill="#BD6D81" opacity="1.000000" stroke="none" 
	d="
M126.244881,203.402039 
	C126.348869,202.938904 126.770531,202.935898 126.980240,202.968689 
	C127.170517,203.449951 127.151077,203.898407 127.102928,205.148972 
	C127.107170,212.971085 127.140129,219.991089 127.173096,227.011093 
	C127.004669,233.760590 126.836250,240.510086 126.480026,247.623627 
	C126.241783,233.280182 126.191338,218.572662 126.244881,203.402039 
z"/>
<path fill="#863ECC" opacity="1.000000" stroke="none" 
	d="
M113.257408,279.940613 
	C113.017532,279.901031 113.099586,279.426147 113.162888,279.193787 
	C119.883606,278.765472 126.541016,278.569519 133.609818,278.294617 
	C140.418777,278.494141 146.816345,278.772675 153.693787,279.151001 
	C154.173676,279.250793 154.082260,279.661438 153.580688,279.866028 
	C140.761459,280.069580 128.443802,280.068481 115.768600,280.036194 
	C114.933174,280.022461 114.455269,280.039886 113.977371,280.057312 
	C113.977371,280.057343 113.497284,279.980225 113.257408,279.940613 
z"/>
<path fill="#A67D69" opacity="1.000000" stroke="none" 
	d="
M155.424484,171.836929 
	C157.351532,171.538696 159.748947,171.029709 162.150269,171.010742 
	C171.537430,170.936478 180.925827,171.017136 190.800476,171.097443 
	C187.560516,171.459518 183.835968,171.987762 180.106750,172.023178 
	C172.037994,172.099823 163.966827,171.923935 155.424484,171.836929 
z"/>
<path fill="#866162" opacity="1.000000" stroke="none" 
	d="
M126.105286,134.390869 
	C126.442451,139.980698 126.854156,146.040146 126.978333,152.105453 
	C127.083138,157.224854 126.854347,162.351059 126.468307,167.774750 
	C126.127342,157.004501 126.091278,145.933762 126.105286,134.390869 
z"/>
<path fill="#E3798A" opacity="1.000000" stroke="none" 
	d="
M212.796478,227.295258 
	C213.362228,229.125366 213.695297,231.275986 214.054779,233.861847 
	C214.169312,234.731400 214.257462,235.165710 214.138504,235.867691 
	C213.475540,233.295502 213.019669,230.455612 212.796478,227.295258 
z"/>
<path fill="#DB679B" opacity="1.000000" stroke="none" 
	d="
M200.013733,118.723679 
	C198.749893,118.296143 197.498138,117.619453 196.136505,116.653961 
	C197.257477,116.712852 198.488312,117.060532 199.887970,117.692383 
	C200.056793,117.976570 200.025818,118.474510 200.013733,118.723679 
z"/>
<path fill="#BD6D81" opacity="1.000000" stroke="none" 
	d="
M126.201668,251.337036 
	C126.539238,251.779877 126.769180,252.555634 126.996185,253.642410 
	C126.693512,253.192276 126.393776,252.431122 126.201668,251.337036 
z"/>
<path fill="#DB679B" opacity="1.000000" stroke="none" 
	d="
M223.819366,273.144653 
	C223.635773,273.465393 223.175430,273.716034 222.449951,273.981415 
	C222.637421,273.688965 223.090027,273.381744 223.819366,273.144653 
z"/>
<path fill="#863ECC" opacity="1.000000" stroke="none" 
	d="
M184.397903,279.082825 
	C179.008438,279.417419 173.163666,279.730957 167.316925,280.001892 
	C165.511398,280.085571 163.700516,280.053223 161.420746,280.143311 
	C160.545929,280.165833 160.142471,280.119019 159.436279,280.040710 
	C163.297501,279.665985 167.455948,279.182678 171.626953,279.019348 
	C175.725296,278.858887 179.836365,279.023468 184.397903,279.082825 
z"/>
<path fill="#D257C7" opacity="1.000000" stroke="none" 
	d="
M113.982971,280.299774 
	C114.455269,280.039886 114.933174,280.022461 116.098602,280.259888 
	C129.185333,280.679810 141.584534,280.844849 153.983734,281.009888 
	C154.175095,283.668091 153.122269,285.084503 150.272751,284.992035 
	C139.325378,284.636749 128.373535,284.397186 117.431847,283.920074 
	C116.286171,283.870087 115.196587,282.533875 114.037727,281.410828 
	C113.994476,281.027222 113.988564,280.542236 113.982971,280.299774 
z"/>
<path fill="#D75FAA" opacity="1.000000" stroke="none" 
	d="
M153.991943,280.776794 
	C141.584534,280.844849 129.185333,280.679810 116.456131,280.291077 
	C128.443802,280.068481 140.761459,280.069580 153.550201,280.074158 
	C154.021271,280.077698 154.000168,280.543701 153.991943,280.776794 
z"/>
<path fill="#E5988A" opacity="1.000000" stroke="none" 
	d="
M154.943222,279.522217 
	C155.142075,280.235962 155.358047,281.326080 155.401947,282.667664 
	C155.140015,281.912323 155.050186,280.905426 154.943222,279.522217 
z"/>
<path fill="#E27393" opacity="1.000000" stroke="none" 
	d="
M105.285919,280.341492 
	C106.782433,280.141602 108.495430,280.102356 110.641258,280.090454 
	C111.348335,283.928528 109.399567,285.333649 105.414742,284.973724 
	C105.681320,283.750763 106.352730,282.527710 107.089348,281.185852 
	C106.903885,281.105957 106.203140,280.804047 105.285919,280.341492 
z"/>
<path fill="#E27393" opacity="1.000000" stroke="none" 
	d="
M97.150238,280.237488 
	C97.047737,280.158600 97.502739,280.133636 97.728889,280.152100 
	C97.955040,280.170532 97.623459,280.356384 97.623459,280.356384 
	C97.623459,280.356384 97.252739,280.316376 97.150238,280.237488 
z"/>
<path fill="#863ECC" opacity="1.000000" stroke="none" 
	d="
M90.186073,156.911713 
	C90.186073,175.612457 90.186073,194.313202 90.186073,213.013931 
	C89.785332,213.022278 89.384583,213.030624 88.983841,213.038971 
	C88.983841,206.331833 88.983841,199.624710 88.955154,192.447113 
	C88.926476,159.577011 88.926476,127.177391 88.926476,94.777763 
	C89.287743,94.777481 89.649010,94.777191 90.010277,94.776909 
	C90.010277,103.579414 90.010277,112.381927 90.025360,122.113373 
	C90.088982,134.332123 90.137527,145.621918 90.186073,156.911713 
z"/>
<path fill="#491985" opacity="1.000000" stroke="none" 
	d="
M90.342560,156.928345 
	C90.137527,145.621918 90.088982,134.332123 90.069855,122.588707 
	C90.099274,122.135094 90.450539,122.069260 90.628967,122.059837 
	C90.852463,130.732574 90.897530,139.414734 91.027344,148.560425 
	C91.055405,151.383484 90.998711,153.743011 90.877045,156.540192 
	C90.812065,156.977829 90.499046,156.944977 90.342560,156.928345 
z"/>
<path fill="#863ECC" opacity="1.000000" stroke="none" 
	d="
M90.113724,232.454529 
	C89.941978,241.366135 89.736893,249.833160 89.293686,258.634338 
	C89.044098,247.198212 89.030479,235.427933 89.032990,223.657669 
	C89.033051,223.349091 89.208755,223.040543 90.080383,222.686111 
	C90.080383,225.794052 90.080383,228.902008 90.113724,232.454529 
z"/>
<path fill="#030104" opacity="1.000000" stroke="none" 
	d="
M140.992188,149.935883 
	C141.022995,147.243881 141.053802,144.551865 141.075180,140.963654 
	C141.096649,135.802139 141.127579,131.536865 141.607025,127.199684 
	C154.028214,127.110886 166.000885,127.093987 177.973557,127.077080 
	C182.871384,127.768806 188.139297,127.573242 192.557022,129.415955 
	C196.524704,131.070938 200.424484,134.393433 202.807373,138.001846 
	C206.695374,143.889526 203.949188,150.037415 196.948364,151.760147 
	C191.421387,153.120209 185.608017,153.316376 179.084747,153.897903 
	C172.845093,153.554657 167.442505,153.342957 161.595474,153.047974 
	C158.451706,152.997299 155.752411,153.029892 152.598602,152.968903 
	C148.836060,152.920563 145.528015,152.965820 141.987946,152.852966 
	C141.493057,152.431244 141.230179,152.167618 141.047058,151.578903 
	C141.081924,150.814499 141.037048,150.375198 140.992188,149.935883 
z"/>
<path fill="#EC9984" opacity="1.000000" stroke="none" 
	d="
M141.158493,127.271576 
	C141.127579,131.536865 141.096649,135.802139 140.985168,140.521606 
	C139.837036,137.670792 139.261490,134.399048 136.309921,131.671585 
	C134.989960,130.451843 136.347244,126.334846 136.744476,123.267883 
	C145.020844,123.002045 153.042236,123.001015 161.532440,122.998169 
	C164.225983,121.921600 167.082047,121.390373 168.560593,119.673111 
	C173.576401,113.847450 179.241638,114.409492 182.188461,121.415161 
	C182.496506,122.147476 183.053802,122.774940 183.451126,123.383171 
	C181.732864,124.030464 180.003128,124.682083 177.700531,125.666290 
	C175.071732,125.989563 173.015793,125.980240 170.750610,125.784241 
	C169.709946,125.720085 168.878510,125.842590 167.575531,125.973221 
	C160.315842,125.980377 153.525711,125.888336 146.740875,126.037720 
	C144.871933,126.078873 143.018845,126.840523 141.158493,127.271576 
z"/>
<path fill="#E3798A" opacity="1.000000" stroke="none" 
	d="
M153.053101,153.062500 
	C155.752411,153.029892 158.451706,152.997299 161.906067,153.242828 
	C164.530991,153.884766 166.400864,154.248566 167.814163,154.523529 
	C167.814163,157.004349 166.976913,160.078308 167.962585,160.863251 
	C171.743637,163.874329 170.081635,166.284256 167.989410,168.972916 
	C162.636139,168.981598 157.282852,168.990280 151.602264,168.660019 
	C152.264191,167.877838 153.212906,167.241440 154.249512,167.023926 
	C159.465225,165.929474 159.601395,165.187057 156.527649,160.845718 
	C154.917389,158.571396 154.183029,155.676910 153.053101,153.062500 
z"/>
<path fill="#E67F89" opacity="1.000000" stroke="none" 
	d="
M168.445831,168.980377 
	C170.081635,166.284256 171.743637,163.874329 167.962585,160.863251 
	C166.976913,160.078308 167.814163,157.004349 167.814163,154.523529 
	C166.400864,154.248566 164.530991,153.884766 162.350525,153.326111 
	C167.442505,153.342957 172.845093,153.554657 178.628204,153.967133 
	C179.334671,156.433777 179.378845,158.786133 180.042526,160.948303 
	C181.647583,166.177139 179.879623,168.844940 174.363007,168.984711 
	C172.543900,169.030807 170.722580,168.989304 168.445831,168.980377 
z"/>
<path fill="#D75FAA" opacity="1.000000" stroke="none" 
	d="
M140.967300,151.903992 
	C141.230179,152.167618 141.493057,152.431244 142.067780,153.051010 
	C142.540955,153.651657 142.746719,153.850082 143.003021,154.404694 
	C143.348404,156.403458 143.474945,158.084595 144.069519,159.579605 
	C145.491058,163.153915 144.677155,165.635544 140.628143,167.028961 
	C138.499023,167.668411 136.733353,168.292694 134.967697,168.916992 
	C134.967697,168.916992 134.503006,168.934525 134.130310,168.691589 
	C133.458511,167.952606 133.159378,167.456543 132.898590,166.597122 
	C135.613708,161.457169 138.290512,156.680588 140.967300,151.903992 
z"/>
<path fill="#E67F89" opacity="1.000000" stroke="none" 
	d="
M141.047058,151.578903 
	C138.290512,156.680588 135.613708,161.457169 132.590652,166.661499 
	C131.162247,167.732620 130.080109,168.375992 128.997971,169.019363 
	C128.674850,164.337967 128.351730,159.656570 128.033661,154.516006 
	C129.038300,154.545746 130.176315,154.866791 131.011215,155.555374 
	C133.402466,157.527542 135.030075,156.740219 136.619995,154.475784 
	C137.705719,152.929443 139.094131,151.595627 140.669708,150.051331 
	C141.037048,150.375198 141.081924,150.814499 141.047058,151.578903 
z"/>
<path fill="#E27393" opacity="1.000000" stroke="none" 
	d="
M142.996948,154.002441 
	C142.746719,153.850082 142.540955,153.651657 142.299805,153.209106 
	C145.528015,152.965820 148.836060,152.920563 152.598602,152.968903 
	C154.183029,155.676910 154.917389,158.571396 156.527649,160.845718 
	C159.601395,165.187057 159.465225,165.929474 154.249512,167.023926 
	C153.212906,167.241440 152.264191,167.877838 151.134308,168.655090 
	C149.923920,168.983292 148.854172,168.977493 147.488113,168.640289 
	C148.703720,166.694839 150.215652,165.080750 151.932831,163.247559 
	C148.506683,160.394943 150.351532,152.969101 142.996948,154.002441 
z"/>
<path fill="#DF6D9C" opacity="1.000000" stroke="none" 
	d="
M143.003021,154.404694 
	C150.351532,152.969101 148.506683,160.394943 151.932831,163.247559 
	C150.215652,165.080750 148.703720,166.694839 147.087082,168.626495 
	C145.248276,168.679138 143.514160,168.414200 141.393356,167.858643 
	C141.001633,167.383286 140.996628,167.198532 140.991608,167.013779 
	C144.677155,165.635544 145.491058,163.153915 144.069519,159.579605 
	C143.474945,158.084595 143.348404,156.403458 143.003021,154.404694 
z"/>
<path fill="#DB679B" opacity="1.000000" stroke="none" 
	d="
M200.303711,127.149734 
	C200.022644,124.612343 200.014175,122.252365 200.015656,119.449966 
	C205.244553,121.467613 206.139679,126.062675 206.015381,131.585266 
	C204.196289,130.451675 202.386307,128.889404 200.303711,127.149734 
z"/>
<path fill="#F3AC8A" opacity="1.000000" stroke="none" 
	d="
M170.959854,125.970909 
	C173.015793,125.980240 175.071732,125.989563 177.568497,125.991035 
	C178.007431,126.165627 178.005554,126.348061 177.988617,126.803787 
	C166.000885,127.093987 154.028214,127.110886 141.607025,127.199684 
	C143.018845,126.840523 144.871933,126.078873 146.740875,126.037720 
	C153.525711,125.888336 160.315842,125.980377 167.939056,125.978905 
	C169.502686,125.974609 170.231277,125.972763 170.959854,125.970909 
z"/>
<path fill="#E67F89" opacity="1.000000" stroke="none" 
	d="
M128.032196,144.493500 
	C131.249832,146.332336 130.412811,148.968506 128.375946,151.811401 
	C128.033279,149.604492 128.030365,147.267410 128.032196,144.493500 
z"/>
<path fill="#E27393" opacity="1.000000" stroke="none" 
	d="
M140.628143,167.028961 
	C140.996628,167.198532 141.001633,167.383286 141.016357,167.846527 
	C139.227081,168.498169 137.428085,168.871368 135.298401,169.080780 
	C136.733353,168.292694 138.499023,167.668411 140.628143,167.028961 
z"/>
<path fill="#E27393" opacity="1.000000" stroke="none" 
	d="
M129.417496,169.018356 
	C130.080109,168.375992 131.162247,167.732620 132.552322,167.024872 
	C133.159378,167.456543 133.458511,167.952606 133.897949,168.699600 
	C132.637848,168.972794 131.237427,168.995071 129.417496,169.018356 
z"/>
<path fill="#E67F89" opacity="1.000000" stroke="none" 
	d="
M128.032990,138.416962 
	C128.229553,138.967896 128.421143,139.880005 128.324921,140.868744 
	C128.034088,140.222961 128.031052,139.500549 128.032990,138.416962 
z"/>
<path fill="#030204" opacity="1.000000" stroke="none" 
	d="
M205.977539,228.559662 
	C202.486237,230.937363 199.109573,232.940598 194.962097,234.957947 
	C187.471786,235.251328 180.752274,235.530594 173.581848,235.738861 
	C170.121964,235.735947 167.112991,235.804047 163.709564,235.750336 
	C155.873245,235.385452 148.431366,235.142380 140.989502,234.899292 
	C141.014206,232.220200 141.038925,229.541107 141.060577,225.961700 
	C141.052780,220.681290 140.851166,216.286331 141.180420,211.931503 
	C141.263763,210.829391 143.040131,209.855301 144.499588,208.895538 
	C159.960770,208.991638 174.960892,209.014603 189.961029,209.037552 
	C195.738556,210.919937 202.002701,212.425735 204.780594,218.510757 
	C206.074280,221.344574 205.706726,224.936768 205.977539,228.559662 
M154.917450,216.965393 
	C153.468918,217.046646 152.020386,217.127884 150.571838,217.209137 
	C150.615051,217.332092 150.658264,217.455048 150.701462,217.578003 
	C160.622177,218.561646 170.542877,219.545273 180.463593,220.528900 
	C172.473557,217.524475 164.178040,216.923996 154.917450,216.965393 
z"/>
<path fill="#E98684" opacity="1.000000" stroke="none" 
	d="
M144.038544,208.822388 
	C143.040131,209.855301 141.263763,210.829391 141.180420,211.931503 
	C140.851166,216.286331 141.052780,220.681290 140.976379,225.521027 
	C136.679306,227.861206 132.466949,229.781830 127.509445,227.082184 
	C127.140129,219.991089 127.107170,212.971085 127.113281,205.485535 
	C139.789062,204.677689 152.425766,204.335373 165.531067,203.994431 
	C166.603821,205.100830 167.207962,206.205856 167.434280,207.633667 
	C159.383820,208.245102 151.711182,208.533737 144.038544,208.822388 
z"/>
<path fill="#F3AC8A" opacity="1.000000" stroke="none" 
	d="
M144.499588,208.895538 
	C151.711182,208.533737 159.383820,208.245102 167.524017,207.938431 
	C175.095078,208.131180 182.198593,208.341980 189.631561,208.795166 
	C174.960892,209.014603 159.960770,208.991638 144.499588,208.895538 
z"/>
<path fill="#E3798A" opacity="1.000000" stroke="none" 
	d="
M208.142426,214.124802 
	C209.126312,215.241135 210.079742,216.742249 211.066956,218.598297 
	C210.104507,217.472000 209.108231,215.990799 208.142426,214.124802 
z"/>
<path fill="#E3798A" opacity="1.000000" stroke="none" 
	d="
M211.845917,221.221664 
	C212.384796,222.077087 212.709564,223.186783 213.015381,224.656235 
	C212.541550,223.835968 212.086685,222.655960 211.845917,221.221664 
z"/>
<path fill="#E3798A" opacity="1.000000" stroke="none" 
	d="
M199.070419,205.342163 
	C199.626678,205.476715 200.276886,205.908783 201.040131,206.629013 
	C200.490234,206.491348 199.827301,206.065521 199.070419,205.342163 
z"/>
<path fill="#DF6D9C" opacity="1.000000" stroke="none" 
	d="
M161.992966,249.996475 
	C161.248886,250.002045 160.504807,250.007599 159.389191,250.019714 
	C156.637482,250.017197 154.257339,250.008118 151.425629,249.613174 
	C149.874100,248.018097 148.469513,246.964920 147.750168,245.560730 
	C146.821899,243.748627 146.095795,241.687546 145.910934,239.675934 
	C145.666168,237.012665 147.332047,235.810135 150.006592,236.014053 
	C151.662506,236.140289 153.325668,236.171341 154.991302,236.632568 
	C155.097870,240.892426 155.951767,244.299774 159.638550,246.536652 
	C160.723633,247.195007 161.224411,248.816422 161.992966,249.996475 
z"/>
<path fill="#D75FAA" opacity="1.000000" stroke="none" 
	d="
M154.985580,236.245117 
	C153.325668,236.171341 151.662506,236.140289 150.006592,236.014053 
	C147.332047,235.810135 145.666168,237.012665 145.910934,239.675934 
	C146.095795,241.687546 146.821899,243.748627 147.750168,245.560730 
	C148.469513,246.964920 149.874100,248.018097 150.980225,249.604462 
	C149.909348,249.980408 148.832306,249.979202 147.083618,249.756317 
	C142.617111,247.695023 138.822250,245.855438 135.027374,244.015854 
	C136.909622,241.179947 138.791885,238.344055 140.831818,235.203720 
	C148.431366,235.142380 155.873245,235.385452 163.654984,235.821136 
	C163.994858,236.013733 163.875641,236.146942 163.437363,236.103058 
	C160.327911,236.121155 157.656754,236.183136 154.985580,236.245117 
z"/>
<path fill="#D65BBB" opacity="1.000000" stroke="none" 
	d="
M134.842178,244.304474 
	C138.822250,245.855438 142.617111,247.695023 146.679718,249.741425 
	C142.200256,249.948257 137.453049,249.948257 131.904419,249.948257 
	C132.860672,248.087860 133.758820,246.340485 134.842178,244.304474 
z"/>
<path fill="#E98684" opacity="1.000000" stroke="none" 
	d="
M174.032776,235.809875 
	C180.752274,235.530594 187.471786,235.251328 194.606842,235.059265 
	C195.022415,235.146500 195.012970,235.567383 195.010956,235.777725 
	C192.381027,239.228455 189.290512,242.204681 187.249130,245.779953 
	C184.991943,249.733170 181.293396,249.937363 177.443527,250.633286 
	C177.243942,248.584473 178.050476,245.718140 177.360855,245.296021 
	C173.468262,242.913300 173.944000,239.367294 174.032776,235.809875 
z"/>
<path fill="#E67F89" opacity="1.000000" stroke="none" 
	d="
M173.581848,235.738861 
	C173.944000,239.367294 173.468262,242.913300 177.360855,245.296021 
	C178.050476,245.718140 177.243942,248.584473 177.056793,250.652405 
	C174.616455,250.985153 172.247635,250.987610 169.436249,250.588486 
	C168.485031,248.558838 168.047531,246.904251 167.452499,245.308395 
	C166.307327,242.237015 165.072998,239.198868 163.875641,236.146942 
	C163.875641,236.146942 163.994858,236.013733 164.049438,235.942932 
	C167.112991,235.804047 170.121964,235.735947 173.581848,235.738861 
z"/>
<path fill="#E3798A" opacity="1.000000" stroke="none" 
	d="
M163.437363,236.103058 
	C165.072998,239.198868 166.307327,242.237015 167.452499,245.308395 
	C168.047531,246.904251 168.485031,248.558838 168.991821,250.584259 
	C166.922012,250.660965 164.854080,250.340286 162.389557,250.008041 
	C161.224411,248.816422 160.723633,247.195007 159.638550,246.536652 
	C155.951767,244.299774 155.097870,240.892426 154.991302,236.632568 
	C157.656754,236.183136 160.327911,236.121155 163.437363,236.103058 
z"/>
<path fill="#E78D83" opacity="1.000000" stroke="none" 
	d="
M170.750610,125.784241 
	C170.231277,125.972763 169.502686,125.974609 168.410599,125.970779 
	C168.878510,125.842590 169.709946,125.720085 170.750610,125.784241 
z"/>
<path fill="#130F29" opacity="1.000000" stroke="none" 
	d="
M155.356613,216.965485 
	C164.178040,216.923996 172.473557,217.524475 180.463593,220.528900 
	C170.542877,219.545273 160.622177,218.561646 150.701462,217.578003 
	C150.658264,217.455048 150.615051,217.332092 150.571838,217.209137 
	C152.020386,217.127884 153.468918,217.046646 155.356613,216.965485 
z"/>
</svg>